<svg xmlns="http://www.w3.org/2000/svg" viewBox="0 0 824.3 1212.21"><defs><style>.cls-1{fill:#060304;}.cls-2{fill:#0c0708;}.cls-3{fill:#6d5145;}.cls-4{fill:#755244;}.cls-5{fill:#9a7362;}.cls-6{fill:#5d4136;}.cls-7{fill:#745143;}.cls-8{fill:#0c0707;}.cls-9{fill:#987161;}.cls-10{fill:#9b7564;}.cls-11{fill:#4a332b;}.cls-12{fill:#070404;}.cls-13{fill:#9a7463;}.cls-14{fill:#775446;}.cls-15{fill:#412d26;}.cls-16{fill:#090505;}.cls-17{fill:#714e41;}.cls-18{fill:#997261;}.cls-19{fill:#170f0d;}.cls-20{fill:#704d40;}.cls-21{fill:#28201d;}.cls-22{fill:#1e1311;}.cls-23{fill:#291c18;}.cls-24{fill:#2d1e1a;}.cls-25{fill:#1c1210;}.cls-26{fill:#251815;}.cls-27{fill:#492c2a;}.cls-28{fill:#110a09;}.cls-29{fill:#100a09;}.cls-30{fill:#150d0c;}.cls-31{fill:#150e0c;}.cls-32{fill:#180f0d;}.cls-33{fill:#18100d;}.cls-34{fill:#251915;}.cls-35{fill:#18100e;}</style></defs><g id="Layer_2" data-name="Layer 2"><g id="Coffee_beans" data-name="Coffee beans"><rect class="cls-1" x="533.37" y="1163.72" width="48.49" height="48.49"/><rect class="cls-1" x="484.88" y="1163.72" width="48.49" height="48.49"/><rect class="cls-1" x="436.4" y="1163.72" width="48.49" height="48.49"/><rect class="cls-1" x="630.35" y="1115.23" width="48.49" height="48.49"/><rect class="cls-2" x="581.86" y="1115.23" width="48.49" height="48.49"/><rect class="cls-3" x="533.37" y="1115.23" width="48.49" height="48.49"/><rect class="cls-3" x="484.88" y="1115.23" width="48.49" height="48.49"/><rect class="cls-1" x="436.4" y="1115.23" width="48.49" height="48.49"/><rect class="cls-1" x="387.91" y="1115.23" width="48.49" height="48.49"/><rect class="cls-1" x="339.42" y="1115.23" width="48.49" height="48.49"/><rect class="cls-1" x="290.93" y="1115.23" width="48.49" height="48.49"/><rect class="cls-1" x="678.84" y="1066.74" width="48.49" height="48.49"/><rect class="cls-4" x="630.35" y="1066.74" width="48.49" height="48.49"/><rect class="cls-4" x="581.86" y="1066.74" width="48.49" height="48.49"/><rect class="cls-5" x="533.37" y="1066.74" width="48.49" height="48.49"/><rect class="cls-5" x="484.88" y="1066.74" width="48.49" height="48.49"/><rect class="cls-1" x="436.4" y="1066.74" width="48.49" height="48.49"/><rect class="cls-6" x="387.91" y="1066.74" width="48.49" height="48.49"/><rect class="cls-6" x="339.42" y="1066.74" width="48.49" height="48.49"/><rect class="cls-1" x="290.93" y="1066.74" width="48.49" height="48.49"/><rect class="cls-1" x="242.44" y="1066.74" width="48.49" height="48.49"/><rect class="cls-1" x="678.84" y="1018.26" width="48.49" height="48.49"/><rect class="cls-4" x="630.35" y="1018.26" width="48.49" height="48.49"/><rect class="cls-5" x="581.86" y="1018.26" width="48.49" height="48.49"/><rect class="cls-5" x="533.37" y="1018.26" width="48.49" height="48.49"/><rect class="cls-5" x="484.88" y="1018.26" width="48.49" height="48.49"/><rect class="cls-5" x="436.4" y="1018.26" width="48.49" height="48.49"/><rect class="cls-1" x="387.91" y="1018.26" width="48.49" height="48.49"/><rect class="cls-4" x="339.42" y="1018.26" width="48.49" height="48.49"/><rect class="cls-7" x="290.93" y="1018.26" width="48.49" height="48.49"/><rect class="cls-8" x="242.44" y="1018.26" width="48.49" height="48.49"/><rect class="cls-1" x="193.95" y="1018.26" width="48.49" height="48.49"/><rect class="cls-1" x="727.33" y="969.77" width="48.49" height="48.49"/><rect class="cls-4" x="678.84" y="969.77" width="48.49" height="48.49"/><rect class="cls-5" x="630.35" y="969.77" width="48.49" height="48.49"/><rect class="cls-5" x="581.86" y="969.77" width="48.49" height="48.49"/><rect class="cls-5" x="533.37" y="969.77" width="48.49" height="48.49"/><rect class="cls-9" x="484.88" y="969.77" width="48.49" height="48.49"/><rect class="cls-1" x="436.4" y="969.77" width="48.49" height="48.49"/><rect class="cls-5" x="387.91" y="969.77" width="48.49" height="48.49"/><rect class="cls-10" x="339.42" y="969.77" width="48.49" height="48.49"/><rect class="cls-4" x="290.93" y="969.77" width="48.49" height="48.49"/><rect class="cls-4" x="242.44" y="969.77" width="48.49" height="48.49"/><rect class="cls-11" x="193.95" y="969.77" width="48.49" height="48.49"/><rect class="cls-1" x="145.47" y="969.77" width="48.49" height="48.49"/><rect class="cls-1" x="727.33" y="921.28" width="48.49" height="48.49"/><rect class="cls-4" x="678.84" y="921.28" width="48.49" height="48.49"/><rect class="cls-5" x="630.35" y="921.28" width="48.49" height="48.49"/><rect class="cls-5" x="581.86" y="921.28" width="48.49" height="48.49"/><rect class="cls-5" x="533.37" y="921.28" width="48.49" height="48.49"/><rect class="cls-5" x="484.88" y="921.28" width="48.49" height="48.49"/><rect class="cls-5" x="436.4" y="921.28" width="48.49" height="48.49"/><rect class="cls-12" x="387.91" y="921.28" width="48.49" height="48.49"/><rect class="cls-13" x="339.42" y="921.28" width="48.49" height="48.49"/><rect class="cls-10" x="290.93" y="921.28" width="48.49" height="48.49"/><rect class="cls-14" x="242.44" y="921.28" width="48.49" height="48.49"/><rect class="cls-4" x="193.95" y="921.28" width="48.49" height="48.49"/><rect class="cls-15" x="145.47" y="921.28" width="48.49" height="48.49"/><rect class="cls-16" x="96.98" y="921.28" width="48.49" height="48.49"/><rect class="cls-1" x="775.81" y="872.79" width="48.49" height="48.49"/><rect class="cls-4" x="727.33" y="872.79" width="48.49" height="48.49"/><rect class="cls-5" x="678.84" y="872.79" width="48.49" height="48.49"/><rect class="cls-5" x="630.35" y="872.79" width="48.49" height="48.49"/><rect class="cls-5" x="581.86" y="872.79" width="48.49" height="48.49"/><rect class="cls-5" x="533.37" y="872.79" width="48.49" height="48.49"/><rect class="cls-5" x="484.88" y="872.79" width="48.49" height="48.49"/><rect class="cls-1" x="436.4" y="872.79" width="48.49" height="48.49"/><rect class="cls-17" x="387.91" y="872.79" width="48.49" height="48.49"/><rect class="cls-1" x="339.42" y="872.79" width="48.49" height="48.49"/><rect class="cls-10" x="290.93" y="872.79" width="48.49" height="48.49"/><rect class="cls-10" x="242.44" y="872.79" width="48.49" height="48.49"/><rect class="cls-4" x="193.95" y="872.79" width="48.49" height="48.49"/><rect class="cls-4" x="145.47" y="872.79" width="48.49" height="48.49"/><rect class="cls-1" x="96.98" y="872.79" width="48.49" height="48.49"/><rect class="cls-1" x="775.81" y="824.3" width="48.49" height="48.49"/><rect class="cls-18" x="727.33" y="824.3" width="48.49" height="48.49"/><rect class="cls-5" x="678.84" y="824.3" width="48.49" height="48.49"/><rect class="cls-5" x="630.35" y="824.3" width="48.49" height="48.49"/><rect class="cls-5" x="581.86" y="824.3" width="48.49" height="48.49"/><rect class="cls-5" x="533.37" y="824.3" width="48.49" height="48.49"/><rect class="cls-5" x="484.88" y="824.3" width="48.49" height="48.49"/><rect class="cls-1" x="436.4" y="824.3" width="48.49" height="48.49"/><rect class="cls-17" x="387.91" y="824.3" width="48.49" height="48.49"/><rect class="cls-1" x="339.42" y="824.3" width="48.49" height="48.49"/><rect class="cls-13" x="290.93" y="824.3" width="48.49" height="48.49"/><rect class="cls-10" x="242.44" y="824.3" width="48.49" height="48.49"/><rect class="cls-10" x="193.95" y="824.3" width="48.49" height="48.49"/><rect class="cls-4" x="145.47" y="824.3" width="48.49" height="48.49"/><rect class="cls-7" x="96.98" y="824.3" width="48.49" height="48.49"/><rect class="cls-19" x="48.49" y="824.3" width="48.49" height="48.49"/><rect class="cls-1" x="775.81" y="775.81" width="48.49" height="48.49"/><rect class="cls-5" x="727.33" y="775.81" width="48.49" height="48.49"/><rect class="cls-5" x="678.84" y="775.81" width="48.49" height="48.49"/><rect class="cls-7" x="630.35" y="775.81" width="48.49" height="48.49"/><rect class="cls-5" x="581.86" y="775.81" width="48.49" height="48.49"/><rect class="cls-5" x="533.37" y="775.81" width="48.49" height="48.49"/><rect class="cls-5" x="484.88" y="775.81" width="48.49" height="48.49"/><rect class="cls-1" x="436.4" y="775.81" width="48.49" height="48.49"/><rect class="cls-20" x="387.91" y="775.81" width="48.49" height="48.49"/><rect class="cls-1" x="339.42" y="775.81" width="48.49" height="48.49"/><rect class="cls-10" x="290.93" y="775.81" width="48.49" height="48.49"/><rect class="cls-10" x="242.44" y="775.81" width="48.49" height="48.49"/><rect class="cls-10" x="193.95" y="775.81" width="48.49" height="48.49"/><rect class="cls-13" x="145.47" y="775.81" width="48.49" height="48.49"/><rect class="cls-4" x="96.98" y="775.81" width="48.49" height="48.49"/><rect class="cls-4" x="48.49" y="775.81" width="48.49" height="48.49"/><rect class="cls-21" y="775.81" width="48.49" height="48.49"/><rect class="cls-1" x="775.81" y="727.33" width="48.49" height="48.49"/><rect class="cls-5" x="727.33" y="727.33" width="48.49" height="48.49"/><rect class="cls-5" x="678.84" y="727.33" width="48.49" height="48.49"/><rect class="cls-5" x="630.35" y="727.33" width="48.49" height="48.49"/><rect class="cls-7" x="581.86" y="727.33" width="48.49" height="48.49"/><rect class="cls-5" x="533.37" y="727.33" width="48.49" height="48.49"/><rect class="cls-5" x="484.88" y="727.33" width="48.49" height="48.49"/><rect class="cls-1" x="436.4" y="727.33" width="48.49" height="48.49"/><rect class="cls-17" x="387.91" y="727.33" width="48.49" height="48.49"/><rect class="cls-22" x="339.42" y="727.33" width="48.49" height="48.49"/><rect class="cls-10" x="290.93" y="727.33" width="48.49" height="48.49"/><rect class="cls-10" x="242.44" y="727.33" width="48.49" height="48.49"/><rect class="cls-10" x="193.95" y="727.33" width="48.49" height="48.49"/><rect class="cls-10" x="145.47" y="727.33" width="48.49" height="48.49"/><rect class="cls-10" x="96.98" y="727.33" width="48.49" height="48.49"/><rect class="cls-4" x="48.49" y="727.33" width="48.49" height="48.49"/><rect class="cls-19" y="727.33" width="48.49" height="48.49"/><rect class="cls-1" x="775.81" y="678.84" width="48.49" height="48.49"/><rect class="cls-5" x="727.33" y="678.84" width="48.49" height="48.49"/><rect class="cls-5" x="678.84" y="678.84" width="48.49" height="48.49"/><rect class="cls-5" x="630.35" y="678.84" width="48.49" height="48.49"/><rect class="cls-5" x="581.86" y="678.84" width="48.49" height="48.49"/><rect class="cls-5" x="533.37" y="678.84" width="48.49" height="48.49"/><rect class="cls-5" x="484.88" y="678.84" width="48.49" height="48.49"/><rect class="cls-1" x="436.4" y="678.84" width="48.49" height="48.49"/><rect class="cls-17" x="387.91" y="678.84" width="48.49" height="48.49"/><rect class="cls-23" x="339.42" y="678.84" width="48.49" height="48.49"/><rect class="cls-10" x="290.93" y="678.84" width="48.49" height="48.49"/><rect class="cls-10" x="242.44" y="678.84" width="48.49" height="48.49"/><rect class="cls-10" x="193.95" y="678.84" width="48.49" height="48.49"/><rect class="cls-10" x="145.47" y="678.84" width="48.49" height="48.49"/><rect class="cls-10" x="96.98" y="678.84" width="48.49" height="48.49"/><rect class="cls-4" x="48.49" y="678.84" width="48.49" height="48.49"/><rect class="cls-19" y="678.84" width="48.49" height="48.49"/><rect class="cls-1" x="775.81" y="630.35" width="48.49" height="48.49"/><rect class="cls-5" x="727.33" y="630.35" width="48.49" height="48.49"/><rect class="cls-5" x="678.84" y="630.35" width="48.49" height="48.49"/><rect class="cls-5" x="630.35" y="630.35" width="48.49" height="48.49"/><rect class="cls-5" x="581.86" y="630.35" width="48.49" height="48.49"/><rect class="cls-5" x="533.37" y="630.35" width="48.49" height="48.49"/><rect class="cls-5" x="484.88" y="630.35" width="48.49" height="48.49"/><rect class="cls-1" x="436.4" y="630.35" width="48.49" height="48.49"/><rect class="cls-17" x="387.91" y="630.35" width="48.49" height="48.49"/><rect class="cls-24" x="339.42" y="630.35" width="48.49" height="48.49"/><rect class="cls-10" x="290.93" y="630.35" width="48.49" height="48.49"/><rect class="cls-10" x="242.44" y="630.35" width="48.49" height="48.49"/><rect class="cls-10" x="193.95" y="630.35" width="48.49" height="48.49"/><rect class="cls-10" x="145.47" y="630.35" width="48.49" height="48.49"/><rect class="cls-10" x="96.98" y="630.35" width="48.49" height="48.49"/><rect y="630.35" width="48.49" height="48.49"/><rect class="cls-1" x="775.81" y="581.86" width="48.49" height="48.49"/><rect class="cls-5" x="727.33" y="581.86" width="48.49" height="48.49"/><rect class="cls-7" x="678.84" y="581.86" width="48.49" height="48.49"/><rect class="cls-5" x="630.35" y="581.86" width="48.49" height="48.49"/><rect class="cls-5" x="581.86" y="581.86" width="48.49" height="48.49"/><rect class="cls-5" x="533.37" y="581.86" width="48.49" height="48.49"/><rect class="cls-5" x="484.88" y="581.86" width="48.49" height="48.49"/><rect class="cls-25" x="436.4" y="581.86" width="48.49" height="48.49"/><rect class="cls-17" x="387.91" y="581.86" width="48.49" height="48.49"/><rect class="cls-26" x="339.42" y="581.86" width="48.49" height="48.49"/><rect class="cls-10" x="290.93" y="581.86" width="48.49" height="48.49"/><rect class="cls-10" x="242.44" y="581.86" width="48.49" height="48.49"/><rect class="cls-10" x="193.95" y="581.86" width="48.49" height="48.49"/><rect class="cls-10" x="145.47" y="581.86" width="48.49" height="48.49"/><rect class="cls-4" x="96.98" y="581.86" width="48.49" height="48.49"/><rect class="cls-19" x="48.49" y="581.86" width="48.49" height="48.49"/><rect class="cls-1" x="775.81" y="533.37" width="48.49" height="48.49"/><rect class="cls-5" x="727.33" y="533.37" width="48.49" height="48.49"/><rect class="cls-5" x="678.84" y="533.37" width="48.49" height="48.49"/><rect class="cls-5" x="630.35" y="533.37" width="48.49" height="48.49"/><rect class="cls-5" x="581.86" y="533.37" width="48.49" height="48.49"/><rect class="cls-5" x="533.37" y="533.37" width="48.49" height="48.49"/><rect class="cls-1" x="484.88" y="533.37" width="48.49" height="48.49"/><rect class="cls-27" x="436.4" y="533.37" width="48.49" height="48.49"/><rect class="cls-17" x="387.91" y="533.37" width="48.49" height="48.49"/><rect class="cls-19" x="339.42" y="533.37" width="48.49" height="48.49"/><rect class="cls-10" x="290.93" y="533.37" width="48.49" height="48.49"/><rect class="cls-10" x="242.44" y="533.37" width="48.49" height="48.49"/><rect class="cls-10" x="193.95" y="533.37" width="48.49" height="48.49"/><rect class="cls-10" x="145.47" y="533.37" width="48.49" height="48.49"/><rect class="cls-4" x="96.98" y="533.37" width="48.49" height="48.49"/><rect class="cls-19" x="48.49" y="533.37" width="48.49" height="48.49"/><rect class="cls-1" x="727.33" y="484.88" width="48.49" height="48.49"/><rect class="cls-5" x="678.84" y="484.88" width="48.49" height="48.49"/><rect class="cls-5" x="630.35" y="484.88" width="48.49" height="48.49"/><rect class="cls-5" x="581.86" y="484.88" width="48.49" height="48.49"/><rect class="cls-5" x="533.37" y="484.88" width="48.49" height="48.49"/><rect class="cls-28" x="484.88" y="484.88" width="48.49" height="48.49"/><rect class="cls-27" x="436.4" y="484.88" width="48.49" height="48.49"/><rect class="cls-17" x="387.91" y="484.88" width="48.49" height="48.49"/><rect class="cls-29" x="339.42" y="484.88" width="48.49" height="48.49"/><rect class="cls-10" x="290.93" y="484.88" width="48.49" height="48.49"/><rect class="cls-10" x="242.44" y="484.88" width="48.49" height="48.49"/><rect class="cls-10" x="193.95" y="484.88" width="48.49" height="48.49"/><rect class="cls-10" x="145.46" y="484.88" width="48.49" height="48.49"/><rect class="cls-4" x="96.98" y="484.88" width="48.49" height="48.49"/><rect class="cls-19" x="48.49" y="484.88" width="48.49" height="48.49"/><rect class="cls-1" x="727.33" y="436.4" width="48.49" height="48.49"/><rect class="cls-5" x="678.84" y="436.4" width="48.49" height="48.49"/><rect class="cls-5" x="630.35" y="436.4" width="48.49" height="48.49"/><rect class="cls-5" x="581.86" y="436.4" width="48.49" height="48.49"/><rect x="533.37" y="436.4" width="48.49" height="48.49"/><rect class="cls-27" x="484.88" y="436.4" width="48.49" height="48.49"/><rect class="cls-17" x="436.4" y="436.4" width="48.49" height="48.49"/><rect class="cls-17" x="387.91" y="436.4" width="48.49" height="48.49"/><rect class="cls-30" x="339.42" y="436.4" width="48.49" height="48.49"/><rect class="cls-10" x="290.93" y="436.4" width="48.49" height="48.49"/><rect class="cls-10" x="242.44" y="436.4" width="48.49" height="48.49"/><rect class="cls-10" x="193.95" y="436.4" width="48.49" height="48.49"/><rect class="cls-10" x="145.46" y="436.4" width="48.49" height="48.49"/><rect class="cls-4" x="96.98" y="436.4" width="48.49" height="48.49"/><rect class="cls-19" x="48.49" y="436.4" width="48.49" height="48.49"/><rect class="cls-1" x="727.33" y="387.91" width="48.49" height="48.49"/><rect class="cls-5" x="678.84" y="387.91" width="48.49" height="48.49"/><rect class="cls-5" x="630.35" y="387.91" width="48.49" height="48.49"/><rect class="cls-5" x="581.86" y="387.91" width="48.49" height="48.49"/><rect x="533.37" y="387.91" width="48.49" height="48.49"/><rect class="cls-27" x="484.88" y="387.91" width="48.49" height="48.49"/><rect class="cls-17" x="436.4" y="387.91" width="48.49" height="48.49"/><rect class="cls-17" x="387.91" y="387.91" width="48.49" height="48.49"/><rect class="cls-31" x="339.42" y="387.91" width="48.49" height="48.49"/><rect class="cls-10" x="290.93" y="387.91" width="48.49" height="48.49"/><rect class="cls-10" x="242.44" y="387.91" width="48.49" height="48.49"/><rect class="cls-10" x="193.95" y="387.91" width="48.49" height="48.49"/><rect class="cls-10" x="145.46" y="387.91" width="48.49" height="48.49"/><rect class="cls-19" x="96.98" y="387.91" width="48.49" height="48.49"/><rect class="cls-19" x="48.49" y="387.91" width="48.49" height="48.49"/><rect class="cls-1" x="678.84" y="339.42" width="48.49" height="48.49"/><rect class="cls-5" x="630.35" y="339.42" width="48.49" height="48.49"/><rect class="cls-5" x="581.86" y="339.42" width="48.49" height="48.49"/><rect x="533.37" y="339.42" width="48.49" height="48.49"/><rect class="cls-27" x="484.88" y="339.42" width="48.49" height="48.49"/><rect class="cls-17" x="436.4" y="339.42" width="48.49" height="48.49"/><rect class="cls-17" x="387.91" y="339.42" width="48.49" height="48.49"/><rect class="cls-19" x="339.42" y="339.42" width="48.49" height="48.49"/><rect class="cls-10" x="290.93" y="339.42" width="48.49" height="48.49"/><rect class="cls-10" x="242.44" y="339.42" width="48.49" height="48.49"/><rect class="cls-10" x="193.95" y="339.42" width="48.49" height="48.49"/><rect class="cls-10" x="145.46" y="339.42" width="48.49" height="48.49"/><rect class="cls-19" x="96.98" y="339.42" width="48.49" height="48.49"/><rect class="cls-19" x="678.84" y="290.93" width="48.49" height="48.49"/><rect class="cls-5" x="630.35" y="290.93" width="48.49" height="48.49"/><rect class="cls-5" x="581.86" y="290.93" width="48.49" height="48.49"/><rect x="533.37" y="290.93" width="48.49" height="48.49"/><rect class="cls-19" x="484.88" y="290.93" width="48.49" height="48.49"/><rect class="cls-27" x="436.4" y="290.93" width="48.49" height="48.49"/><rect class="cls-17" x="387.91" y="290.93" width="48.49" height="48.49"/><rect class="cls-19" x="339.42" y="290.93" width="48.49" height="48.49"/><rect class="cls-10" x="290.93" y="290.93" width="48.49" height="48.49"/><rect class="cls-10" x="242.44" y="290.93" width="48.49" height="48.49"/><rect class="cls-10" x="193.95" y="290.93" width="48.49" height="48.49"/><rect class="cls-10" x="145.46" y="290.93" width="48.49" height="48.49"/><rect class="cls-19" x="96.98" y="290.93" width="48.49" height="48.49"/><rect class="cls-19" x="630.35" y="242.44" width="48.49" height="48.49"/><rect class="cls-5" x="581.86" y="242.44" width="48.49" height="48.49"/><rect class="cls-5" x="533.37" y="242.44" width="48.49" height="48.49"/><rect class="cls-32" x="484.88" y="242.44" width="48.49" height="48.49"/><rect class="cls-33" x="436.39" y="242.44" width="48.49" height="48.49"/><rect class="cls-27" x="387.91" y="242.44" width="48.49" height="48.49"/><rect class="cls-19" x="339.42" y="242.44" width="48.49" height="48.49"/><rect class="cls-10" x="290.93" y="242.44" width="48.49" height="48.49"/><rect class="cls-10" x="242.44" y="242.44" width="48.49" height="48.49"/><rect class="cls-10" x="193.95" y="242.44" width="48.49" height="48.49"/><rect class="cls-10" x="145.46" y="242.44" width="48.49" height="48.49"/><rect class="cls-19" x="96.98" y="242.44" width="48.49" height="48.49"/><rect class="cls-19" x="581.86" y="193.95" width="48.49" height="48.49"/><rect class="cls-5" x="533.37" y="193.95" width="48.49" height="48.49"/><rect class="cls-5" x="484.88" y="193.95" width="48.49" height="48.49"/><rect class="cls-19" x="436.39" y="193.95" width="48.49" height="48.49"/><rect class="cls-27" x="387.91" y="193.95" width="48.49" height="48.49"/><rect class="cls-19" x="339.42" y="193.95" width="48.49" height="48.49"/><rect class="cls-10" x="290.93" y="193.95" width="48.49" height="48.49"/><rect class="cls-10" x="242.44" y="193.95" width="48.49" height="48.49"/><rect class="cls-10" x="193.95" y="193.95" width="48.49" height="48.49"/><rect class="cls-19" x="145.46" y="193.95" width="48.49" height="48.49"/><rect class="cls-19" x="533.37" y="145.46" width="48.49" height="48.49"/><rect class="cls-18" x="484.88" y="145.47" width="48.49" height="48.49"/><rect class="cls-5" x="436.39" y="145.47" width="48.49" height="48.49"/><rect class="cls-19" x="387.91" y="145.47" width="48.49" height="48.49"/><rect class="cls-34" x="339.42" y="145.47" width="48.49" height="48.49"/><rect class="cls-10" x="290.93" y="145.47" width="48.49" height="48.49"/><rect class="cls-10" x="242.44" y="145.47" width="48.49" height="48.49"/><rect class="cls-10" x="193.95" y="145.47" width="48.49" height="48.49"/><rect class="cls-19" x="145.46" y="145.47" width="48.49" height="48.49"/><rect class="cls-19" x="484.88" y="96.98" width="48.49" height="48.49"/><rect class="cls-5" x="436.39" y="96.98" width="48.49" height="48.49"/><rect class="cls-5" x="387.91" y="96.98" width="48.49" height="48.49"/><rect class="cls-19" x="339.42" y="96.98" width="48.49" height="48.49"/><rect class="cls-10" x="290.93" y="96.98" width="48.49" height="48.49"/><rect class="cls-10" x="242.44" y="96.98" width="48.49" height="48.49"/><rect class="cls-19" x="193.95" y="96.98" width="48.49" height="48.49"/><rect class="cls-19" x="436.39" y="48.49" width="48.49" height="48.49"/><rect class="cls-5" x="387.91" y="48.49" width="48.49" height="48.49"/><rect class="cls-35" x="339.42" y="48.49" width="48.49" height="48.49"/><rect class="cls-10" x="290.93" y="48.49" width="48.49" height="48.49"/><rect class="cls-19" x="242.44" y="48.49" width="48.49" height="48.49"/><rect class="cls-19" x="387.91" width="48.49" height="48.49"/><rect class="cls-19" x="339.42" width="48.49" height="48.49"/><rect class="cls-19" x="290.93" width="48.49" height="48.49"/><rect class="cls-4" x="48.49" y="630.35" width="48.49" height="48.49"/></g></g></svg>