<svg xmlns="http://www.w3.org/2000/svg" viewBox="0 0 1193.74 1683.99"><defs><style>.cls-1{fill:#8b5e3c;}.cls-2{fill:#251815;}</style></defs><g id="Layer_2" data-name="Layer 2"><g id="Coffee_beans" data-name="Coffee beans"><rect class="cls-1" x="224.53" y="196.09" width="630.78" height="1263.37"/><rect class="cls-1" x="563.15" y="496.47" width="452.17" height="772.62"/><rect class="cls-2" x="425.92" width="224.53" height="224.53"/><rect class="cls-2" x="143.79" y="135.84" width="284.31" height="224.53"/><rect class="cls-2" y="360.38" width="224.53" height="537.75"/><rect class="cls-2" x="49.21" y="898.13" width="224.53" height="434.47"/><rect class="cls-2" x="199.31" y="1296" width="224.53" height="224.53"/><rect class="cls-2" x="650.45" y="112.27" width="224.53" height="224.53" transform="translate(1525.43 449.06) rotate(-180)"/><rect class="cls-2" x="780.63" y="299.38" width="322.88" height="224.53" transform="translate(1884.14 823.28) rotate(-180)"/><rect class="cls-2" x="942.07" y="516.99" width="224.53" height="224.53" transform="translate(2108.68 1258.5) rotate(-180)"/><rect class="cls-2" x="969.21" y="711.02" width="224.53" height="561.33" transform="translate(2162.96 1983.37) rotate(-180)"/><rect class="cls-2" x="637.84" y="1347.19" width="224.53" height="224.53" transform="translate(1500.21 2918.92) rotate(-180)"/><rect class="cls-2" x="425.92" y="1459.46" width="224.53" height="224.53" transform="translate(1076.37 3143.45) rotate(-180)"/><rect class="cls-2" x="843.71" y="1234.93" width="224.53" height="224.53" transform="translate(1911.95 2694.38) rotate(-180)"/><rect class="cls-2" x="363.13" y="211.3" width="224.53" height="224.53"/><rect class="cls-2" x="410.11" y="420.54" width="224.53" height="224.53"/><rect class="cls-2" x="450.89" y="623.45" width="224.53" height="224.53"/><rect class="cls-2" x="475.4" y="841.08" width="224.53" height="224.53"/><rect class="cls-2" x="522.38" y="1011.35" width="224.53" height="224.53"/><rect class="cls-2" x="522.38" y="1234.93" width="224.53" height="224.53"/></g></g></svg>