<svg xmlns="http://www.w3.org/2000/svg" viewBox="0 0 1613.8 1423.94"><defs><style>.cls-1{fill:#fff;}</style></defs><g id="Layer_2" data-name="Layer 2"><g id="Layer_1-2" data-name="Layer 1"><rect class="cls-1" x="1044.21" y="474.65" width="474.65" height="94.94"/><rect class="cls-1" x="94.92" y="474.65" width="474.65" height="94.94"/><rect class="cls-1" x="1518.86" y="569.59" width="94.94" height="94.92"/><rect class="cls-1" y="569.59" width="94.92" height="94.92"/><rect class="cls-1" x="1423.94" y="664.51" width="94.92" height="94.94"/><rect class="cls-1" x="94.92" y="664.51" width="94.92" height="94.94"/><rect class="cls-1" x="1234.07" y="759.45" width="189.86" height="94.92"/><rect class="cls-1" x="189.84" y="759.45" width="189.86" height="94.92"/><rect class="cls-1" x="379.7" y="854.37" width="94.94" height="189.86"/><rect class="cls-1" x="1139.15" y="854.37" width="94.92" height="189.86"/><rect class="cls-1" x="759.43" y="1044.23" width="94.92" height="94.92"/><rect class="cls-1" x="284.78" y="1044.23" width="94.92" height="189.86"/><rect class="cls-1" x="1234.07" y="1044.23" width="94.92" height="189.86"/><rect class="cls-1" x="854.35" y="1139.15" width="94.94" height="94.94"/><rect class="cls-1" x="664.51" y="1139.15" width="94.92" height="94.94"/><rect class="cls-1" x="1328.99" y="1234.1" width="94.94" height="94.92"/><rect class="cls-1" x="949.29" y="1234.1" width="189.86" height="94.92"/><rect class="cls-1" x="474.65" y="1234.1" width="189.86" height="94.92"/><rect class="cls-1" x="189.84" y="1234.1" width="94.94" height="94.92"/><rect class="cls-1" x="1139.15" y="1329.02" width="189.84" height="94.92"/><rect class="cls-1" x="284.78" y="1329.02" width="189.86" height="94.92"/><rect class="cls-1" x="949.29" y="284.78" width="94.92" height="189.86"/><rect class="cls-1" x="569.57" y="284.78" width="94.94" height="189.86"/><rect class="cls-1" x="854.35" y="94.94" width="94.94" height="189.84"/><rect class="cls-1" x="664.51" y="94.94" width="94.92" height="189.84"/><rect class="cls-1" x="759.43" width="94.92" height="94.94"/><rect class="cls-1" x="664.51" y="569.57" width="94.92" height="94.94"/><rect class="cls-1" x="474.65" y="664.51" width="189.84" height="94.94"/><rect class="cls-1" x="759.43" y="379.73" width="94.92" height="189.86"/></g></g></svg>