<svg xmlns="http://www.w3.org/2000/svg" viewBox="0 0 1613.8 1423.94"><defs><style>.cls-1{fill:#f7db34;}.cls-2{fill:#241f21;}.cls-3{fill:#fff;}</style></defs><g id="Layer_2" data-name="Layer 2"><g id="Layer_1-2" data-name="Layer 1"><polygon class="cls-1" points="94.92 569.59 94.92 664.51 189.84 664.51 189.84 759.45 379.7 759.45 379.7 854.37 474.65 854.37 474.65 1044.23 379.7 1044.23 379.7 1234.1 284.78 1234.1 284.78 1329.02 474.65 1329.02 474.65 1234.1 664.51 1234.1 664.51 1139.15 759.43 1139.15 759.43 1044.23 854.35 1044.23 854.35 1139.15 949.29 1139.15 949.29 1234.1 1139.15 1234.1 1139.15 1329.02 1328.99 1329.02 1328.99 1234.1 1234.08 1234.1 1234.08 1044.23 1139.15 1044.23 1139.15 854.37 1234.08 854.37 1234.08 759.45 1423.94 759.45 1423.94 664.51 1518.86 664.51 1518.86 569.59 1044.21 569.59 1044.21 474.65 949.29 474.65 949.29 284.78 854.35 284.78 854.35 94.94 759.43 94.94 759.43 284.78 664.51 284.78 664.51 474.65 569.57 474.65 569.57 569.59 94.92 569.59"/><rect class="cls-2" x="1044.21" y="474.65" width="474.65" height="94.94"/><rect class="cls-2" x="94.92" y="474.65" width="474.65" height="94.94"/><rect class="cls-2" x="1518.86" y="569.59" width="94.94" height="94.92"/><rect class="cls-2" y="569.59" width="94.92" height="94.92"/><rect class="cls-2" x="1423.94" y="664.51" width="94.92" height="94.94"/><rect class="cls-2" x="94.92" y="664.51" width="94.92" height="94.94"/><rect class="cls-2" x="1234.07" y="759.45" width="189.86" height="94.92"/><rect class="cls-2" x="189.84" y="759.45" width="189.86" height="94.92"/><rect class="cls-2" x="379.7" y="854.37" width="94.94" height="189.86"/><rect class="cls-2" x="1139.15" y="854.37" width="94.92" height="189.86"/><rect class="cls-2" x="759.43" y="1044.23" width="94.92" height="94.92"/><rect class="cls-2" x="284.78" y="1044.23" width="94.92" height="189.86"/><rect class="cls-2" x="1234.07" y="1044.23" width="94.92" height="189.86"/><rect class="cls-2" x="854.35" y="1139.15" width="94.94" height="94.94"/><rect class="cls-2" x="664.51" y="1139.15" width="94.92" height="94.94"/><rect class="cls-2" x="1328.99" y="1234.1" width="94.94" height="94.92"/><rect class="cls-2" x="949.29" y="1234.1" width="189.86" height="94.92"/><rect class="cls-2" x="474.65" y="1234.1" width="189.86" height="94.92"/><rect class="cls-2" x="189.84" y="1234.1" width="94.94" height="94.92"/><rect class="cls-2" x="1139.15" y="1329.02" width="189.84" height="94.92"/><rect class="cls-2" x="284.78" y="1329.02" width="189.86" height="94.92"/><rect class="cls-2" x="949.29" y="284.78" width="94.92" height="189.86"/><rect class="cls-2" x="569.57" y="284.78" width="94.94" height="189.86"/><rect class="cls-2" x="854.35" y="94.94" width="94.94" height="189.84"/><rect class="cls-2" x="664.51" y="94.94" width="94.92" height="189.84"/><rect class="cls-2" x="759.43" width="94.92" height="94.94"/><rect class="cls-3" x="664.51" y="569.57" width="94.92" height="94.94"/><rect class="cls-3" x="474.65" y="664.51" width="189.84" height="94.94"/><rect class="cls-3" x="759.43" y="379.73" width="94.92" height="189.86"/></g></g></svg>