<svg xmlns="http://www.w3.org/2000/svg" viewBox="0 0 2084.34 2026.06"><defs><style>.cls-1{fill:#b5b50b;}.cls-2{fill:#f2ff00;}.cls-3{fill:#762711;}.cls-4{fill:#651a0c;}.cls-5{fill:#7d0284;}.cls-6{fill:#008c61;}.cls-7{fill:#aa00af;}.cls-8{fill:#de00de;}.cls-9{fill:#00bc86;}.cls-10{fill:#00f0b3;}.cls-11{fill:#9a4d28;}</style></defs><g id="Layer_2" data-name="Layer 2"><g id="_Layer_" data-name="&lt;Layer&gt;"><path class="cls-1" d="M332.67.28,604.05,0,746.77.64l-.5,209.61q-68.7-.45-137.38.39c-37.67-1.35-75.72-.19-113.43-.12-6.92.19-13.88-.07-20.6,1.65l-1.77-.19c-23.72-6.47-110.32-1.48-140.43-1.21L332.43,109Z"/><path class="cls-2" d="M332.67.28,604.05,0l.2,110.16L332.43,109Z"/><path class="cls-3" d="M495.46,210.2c37.71,0,75.76-.49,113.43.05l.41,43.52-112.54-.05c-4.49,11-.6,24.3-.32,35.59q.68,31.9.48,63.82l-.63,264.92,1.81,923.5c28.35.06,77.43,1.81,103.78-.43,12.53-7.53-3.88-97.26,6.77-99.67l.16,101c-45,0-90.91.68-135.83-.05l.11-1331.58,1.77.07C481.58,210.17,488.54,210.27,495.46,210.2Z"/><path class="cls-4" d="M474.86,212.17c6.72-1.72,13.68-1.46,20.6-1.65q-.84,54.64,0,109.28c-6.62,1.28-11.87,1.9-18.6,1.18C471.5,291.76,476.56,244.29,474.86,212.17Z"/><path class="cls-5" d="M1907.18,390.67l175.18-.58-.88,104.62-166.15.36.14,110.69-173.06.14-1,104.31q-87.88.19-175.75-.33c-62.91-1.84-126.79-.35-189.76-.36,5.05-105.19-.24-211.44.13-316.76,118.4.91,237,.13,355.41.1C1782.35,392.85,1858.89,397.31,1907.18,390.67Z"/><path class="cls-6" d="M1564.94,1053.15q88,.51,176,0l-.33,106.29,169.18.26.74,104c57.85.1,115.94-.49,173.79.44l-.47,115.64-445.55.07c-77.62-.09-157.29,2.22-234.71-.49l-27.55-1.08q-1.69-162.69.78-325.38C1439.44,1053,1502.41,1052,1564.94,1053.15Z"/><path class="cls-7" d="M609.88,389.82c64.85,2,130.4.74,195.32.69l367.73-.14c62.71,0,126-1.11,188.65.27l335.74-.24c69.74,0,140.22-1.3,209.86.27-48.29,6.64-124.83,2.18-175.78,2.19-118.44,0-237,.81-355.41-.1-.37,105.32,4.92,211.57-.13,316.76-146.76,1.28-293.75.22-440.5.25-108.74.08-217.72-.89-326.44.16C609.5,603.29,606.33,496.42,609.88,389.82Z"/><path class="cls-8" d="M609.88,389.82c64.85,2,130.4.74,195.32.69l367.73-.14c62.71,0,126-1.11,188.65.27-51,4.94-107.66,1.88-159.45,1.82-88.77-.1-177.84.72-266.57-.82l-.2,318.13c-108.74.08-217.72-.89-326.44.16C609.5,603.29,606.33,496.42,609.88,389.82Z"/><path class="cls-9" d="M608.89,1052.81l326.33,0,441.62.12q-2.47,162.69-.78,325.38l27.55,1.08c-76.34,2.63-153.76,1.12-230.27,1.14-187.84,0-376.49-2.55-564.23.17Z"/><path class="cls-10" d="M608.89,1052.81l326.33,0,.07,325.7c146.55,0,294.32,2.48,440.77-.2l27.55,1.08c-76.34,2.63-153.76,1.12-230.27,1.14-187.84,0-376.49-2.55-564.23.17Z"/><path class="cls-7" d="M1375.86,709.52c63,0,126.85-1.48,189.76.36q-.88,58-.24,116l-188.92-.19.48,113.37c62.67-.34,125.5-.15,188.17-1.32l-.17,115.38c-62.53-1.13-125.5-.18-188.1-.25l-441.62-.12-326.33,0,0-342.88c108.72-1,217.7-.08,326.44-.16C1082.11,709.74,1229.1,710.8,1375.86,709.52Z"/><path class="cls-8" d="M935.36,709.77l-.14,343-326.33,0,0-342.88C717.64,708.88,826.62,709.85,935.36,709.77Z"/><path class="cls-3" d="M963,1918.27l126.46-.13c.07,11.09-.46,22.51,1.14,33.51.83,24.59.39,49.18.17,73.77l-127.7.13Q962.35,1971.91,963,1918.27Z"/><path class="cls-11" d="M964.78,1810.54q63.29.18,126.57-.37c.22,46.48,3.41,95.26-.72,141.48-1.6-11-1.07-22.42-1.14-33.51l-126.46.13C964.34,1883.49,958.55,1844.6,964.78,1810.54Z"/><path class="cls-3" d="M825,1675.53l138.29-.14c-.13,35.31-4.46,101.83.86,133.9-46.49,3.26-94.17.94-140.75.15C823.23,1765.3,820.63,1719.39,825,1675.53Z"/><path class="cls-6" d="M610.78,1237.52c4.44,101.39.29,204.23.57,305.82l212.53,0L825,1675.53l-556.07.32q.63-66.88-.53-133.78,102.5.54,205-.13c44.92,1.83,90.82.15,135.83.13l-.16-255C610.59,1270.77,610,1253.93,610.78,1237.52Z"/><path class="cls-11" d="M268.93,1675.85l556.07-.32c-4.37,43.86-1.77,89.77-1.6,133.91l-487.2,0c-47.07.06-94.1,1.7-141.18,1.94-20.82.09-42.34,1.21-63.06-1,.36-17.44.47-34.72-.34-52.13-1-26.8,0-54.06.1-80.9C174.67,1671.83,225,1675.92,268.93,1675.85Z"/><path class="cls-3" d="M131.62,1758.26c-1-26.8,0-54.06.1-80.9,45,3.24,91.2.94,136.33.86,0,43.55.53,87.15-.16,130.68-44.32,0-92-3.41-135.93,1.49C132.32,1793,132.43,1775.67,131.62,1758.26Z"/><path class="cls-11" d="M131.62,1758.26c.81,17.41.7,34.69.34,52.13,20.72,2.23,42.24,1.11,63.06,1,47.08-.24,94.11-1.88,141.18-1.94l487.2,0c46.58.79,94.26,3.11,140.75-.15l.63,1.25c-6.23,34.06-.44,73-1.75,107.73q-.69,53.64.07,107.28l-616.56-.16c-92.44,0-185.11,1.65-277.51-.28-22.66,1.14-45.88.24-68.6.26-.76-35-.25-70.22-.36-105.28l.09-109,130.3-.06Q130.27,1784.61,131.62,1758.26Z"/><path class="cls-3" d="M.07,1920.09c43.59-.09,87.36.72,130.92-.44L130.85,2024c-19.77.13-42.44-2-61.82,1.09-22.66,1.14-45.88.24-68.6.26C-.33,1990.33.18,1955.15.07,1920.09Z"/><path class="cls-7" d="M131.62,1758.26c.81,17.41.7,34.69.34,52.13,20.72,2.23,42.24,1.11,63.06,1,47.08-.24,94.11-1.88,141.18-1.94l487.2,0c46.58.79,94.26,3.11,140.75-.15l.63,1.25c-6.23,34.06-.44,73-1.75,107.73l-832.11,1.21c-1.43-36.1-.61-72.37-.46-108.5Q130.27,1784.61,131.62,1758.26Z"/><path class="cls-11" d="M609.3,253.77c.05,9.12.58,18.3,0,27.42-2.31,42.21-.25,84.53-.62,126.75l0,135.77.15,129.81,1.6,748.31c-.76,6.49-.19,13.16-1.73,19.62-10.65,2.41,5.76,92.14-6.77,99.67-26.35,2.24-75.43.49-103.78.43l-1.81-923.5.63-264.92q.19-31.92-.48-63.82c-.28-11.29-4.17-24.56.32-35.59Z"/></g></g></svg>