<svg xmlns="http://www.w3.org/2000/svg" viewBox="0 0 2923.57 2136.46"><defs><style>.cls-1{fill:#293f21;}.cls-2{fill:#477238;}.cls-3{fill:#050403;}.cls-4{fill:#61a53f;}.cls-5{fill:#8fd032;}.cls-6{fill:#fff;}.cls-7{fill:#f6d896;}.cls-8{fill:#fcf7be;}</style></defs><g id="Layer_2" data-name="Layer 2"><g id="Layer_1-2" data-name="Layer 1"><rect class="cls-1" x="1461.79" width="112.44" height="112.45"/><rect class="cls-1" x="1574.23" width="112.45" height="112.45"/><rect class="cls-1" x="1686.68" width="112.45" height="112.45"/><rect class="cls-1" x="1799.12" width="112.45" height="112.45"/><rect class="cls-1" x="1911.57" width="112.44" height="112.45"/><rect class="cls-1" x="2024.01" width="112.44" height="112.45"/><rect class="cls-1" x="2136.46" width="112.45" height="112.45"/><rect class="cls-1" x="2248.9" width="112.44" height="112.45"/><rect class="cls-1" x="2361.35" width="112.44" height="112.45"/><rect class="cls-1" x="1236.9" y="112.45" width="112.45" height="112.45"/><rect class="cls-1" x="1349.34" y="112.45" width="112.45" height="112.45"/><rect class="cls-2" x="1461.79" y="112.45" width="112.44" height="112.45"/><rect class="cls-3" x="1574.23" y="112.45" width="112.45" height="112.45"/><rect class="cls-3" x="1686.68" y="112.45" width="112.45" height="112.45"/><rect class="cls-2" x="1799.12" y="112.45" width="112.45" height="112.45"/><rect class="cls-4" x="1911.57" y="112.45" width="112.44" height="112.45"/><rect class="cls-5" x="2024.01" y="112.45" width="112.44" height="112.45"/><rect class="cls-5" x="2136.46" y="112.45" width="112.45" height="112.45"/><rect class="cls-4" x="2248.9" y="112.45" width="112.44" height="112.45"/><rect class="cls-2" x="2361.35" y="112.45" width="112.44" height="112.45"/><rect class="cls-3" x="2473.79" y="112.45" width="112.45" height="112.45"/><rect class="cls-3" x="2586.24" y="112.45" width="112.45" height="112.45"/><rect class="cls-1" x="1124.45" y="224.89" width="112.45" height="112.44"/><rect class="cls-2" x="1236.9" y="224.89" width="112.45" height="112.44"/><rect class="cls-2" x="1349.34" y="224.89" width="112.45" height="112.44"/><rect class="cls-3" x="1461.79" y="224.89" width="112.44" height="112.44"/><rect class="cls-6" x="1574.23" y="224.89" width="112.45" height="112.44"/><rect class="cls-6" x="1686.68" y="224.89" width="112.45" height="112.44"/><rect class="cls-3" x="1799.12" y="224.89" width="112.45" height="112.44"/><rect class="cls-2" x="1911.57" y="224.89" width="112.44" height="112.44"/><rect class="cls-5" x="2024.01" y="224.89" width="112.44" height="112.44"/><rect class="cls-5" x="2136.46" y="224.89" width="112.45" height="112.44"/><rect class="cls-2" x="2248.9" y="224.89" width="112.44" height="112.44"/><rect class="cls-3" x="2361.35" y="224.89" width="112.44" height="112.44"/><rect class="cls-6" x="2473.79" y="224.89" width="112.45" height="112.44"/><rect class="cls-6" x="2586.24" y="224.89" width="112.45" height="112.44"/><rect class="cls-3" x="2698.68" y="224.89" width="112.45" height="112.44"/><rect class="cls-1" x="1012.01" y="337.34" width="112.44" height="112.45"/><rect class="cls-2" x="1124.45" y="337.34" width="112.45" height="112.45"/><rect class="cls-4" x="1236.9" y="337.34" width="112.45" height="112.45"/><rect class="cls-3" x="1349.34" y="337.34" width="112.45" height="112.45"/><rect class="cls-6" x="1461.79" y="337.34" width="112.44" height="112.45"/><rect class="cls-6" x="1574.23" y="337.34" width="112.45" height="112.45"/><rect class="cls-3" x="1686.68" y="337.34" width="112.45" height="112.45"/><rect class="cls-6" x="1799.12" y="337.34" width="112.45" height="112.45"/><rect class="cls-1" x="1911.57" y="337.34" width="112.44" height="112.45"/><rect class="cls-5" x="2024.01" y="337.34" width="112.44" height="112.45"/><rect class="cls-5" x="2136.46" y="337.34" width="112.45" height="112.45"/><rect class="cls-1" x="2248.9" y="337.34" width="112.44" height="112.45"/><rect class="cls-6" x="2361.35" y="337.34" width="112.44" height="112.45"/><rect class="cls-6" x="2473.79" y="337.34" width="112.45" height="112.45"/><rect class="cls-3" x="2586.24" y="337.34" width="112.45" height="112.45"/><rect class="cls-6" x="2698.68" y="337.34" width="112.45" height="112.45"/><rect class="cls-3" x="2811.13" y="337.34" width="112.44" height="112.45"/><rect class="cls-1" x="899.56" y="449.78" width="112.45" height="112.45"/><rect class="cls-4" x="1012.01" y="449.78" width="112.44" height="112.45"/><rect class="cls-4" x="1124.45" y="449.78" width="112.45" height="112.45"/><rect class="cls-4" x="1236.9" y="449.78" width="112.45" height="112.45"/><rect class="cls-3" x="1349.34" y="449.78" width="112.45" height="112.45"/><rect class="cls-6" x="1461.79" y="449.78" width="112.44" height="112.45"/><rect class="cls-6" x="1574.23" y="449.78" width="112.45" height="112.45"/><rect class="cls-6" x="1686.68" y="449.78" width="112.45" height="112.45"/><rect class="cls-6" x="1799.12" y="449.78" width="112.45" height="112.45"/><rect class="cls-1" x="1911.57" y="449.78" width="112.44" height="112.45"/><rect class="cls-5" x="2024.01" y="449.78" width="112.44" height="112.45"/><rect class="cls-5" x="2136.46" y="449.78" width="112.45" height="112.45"/><rect class="cls-1" x="2248.9" y="449.78" width="112.44" height="112.45"/><rect class="cls-6" x="2361.35" y="449.78" width="112.44" height="112.45"/><rect class="cls-6" x="2473.79" y="449.78" width="112.45" height="112.45"/><rect class="cls-6" x="2586.24" y="449.78" width="112.45" height="112.45"/><rect class="cls-6" x="2698.68" y="449.78" width="112.45" height="112.45"/><rect class="cls-3" x="2811.13" y="449.78" width="112.44" height="112.45"/><rect class="cls-1" x="787.12" y="562.23" width="112.44" height="112.45"/><rect class="cls-2" x="899.56" y="562.23" width="112.45" height="112.45"/><rect class="cls-4" x="1012.01" y="562.23" width="112.44" height="112.45"/><rect class="cls-5" x="1124.45" y="562.23" width="112.45" height="112.45"/><rect class="cls-5" x="1236.9" y="562.23" width="112.45" height="112.45"/><rect class="cls-4" x="1349.34" y="562.23" width="112.45" height="112.45"/><rect class="cls-3" x="1461.79" y="562.23" width="112.44" height="112.45"/><rect class="cls-6" x="1574.23" y="562.23" width="112.45" height="112.45"/><rect class="cls-6" x="1686.68" y="562.23" width="112.45" height="112.45"/><rect class="cls-1" x="1799.12" y="562.23" width="112.45" height="112.45"/><rect class="cls-5" x="1911.57" y="562.23" width="112.44" height="112.45"/><rect class="cls-5" x="2024.01" y="562.23" width="112.44" height="112.45"/><rect class="cls-5" x="2136.46" y="562.23" width="112.45" height="112.45"/><rect class="cls-5" x="2248.9" y="562.23" width="112.44" height="112.45"/><rect class="cls-1" x="2361.35" y="562.23" width="112.44" height="112.45"/><rect class="cls-6" x="2473.79" y="562.23" width="112.45" height="112.45"/><rect class="cls-6" x="2586.24" y="562.23" width="112.45" height="112.45"/><rect class="cls-1" x="2698.68" y="562.23" width="112.45" height="112.45"/><rect class="cls-3" x="2811.13" y="562.23" width="112.44" height="112.45"/><rect class="cls-1" x="674.67" y="674.67" width="112.45" height="112.44"/><rect class="cls-2" x="787.12" y="674.67" width="112.44" height="112.44"/><rect class="cls-4" x="899.56" y="674.67" width="112.45" height="112.44"/><rect class="cls-4" x="1012.01" y="674.67" width="112.44" height="112.44"/><rect class="cls-5" x="1124.45" y="674.67" width="112.45" height="112.44"/><rect class="cls-5" x="1236.9" y="674.67" width="112.45" height="112.44"/><rect class="cls-5" x="1349.34" y="674.67" width="112.45" height="112.44"/><rect class="cls-4" x="1461.79" y="674.67" width="112.44" height="112.44"/><rect class="cls-1" x="1574.23" y="674.67" width="112.45" height="112.44"/><rect class="cls-1" x="1686.68" y="674.67" width="112.45" height="112.44"/><rect class="cls-2" x="1799.12" y="674.67" width="112.45" height="112.44"/><rect class="cls-4" x="1911.57" y="674.67" width="112.44" height="112.44"/><rect class="cls-5" x="2024.01" y="674.67" width="112.44" height="112.44"/><rect class="cls-5" x="2136.46" y="674.67" width="112.45" height="112.44"/><rect class="cls-4" x="2248.9" y="674.67" width="112.44" height="112.44"/><rect class="cls-2" x="2361.35" y="674.67" width="112.44" height="112.44"/><rect class="cls-1" x="2473.79" y="674.67" width="112.45" height="112.44"/><rect class="cls-1" x="2586.24" y="674.67" width="112.45" height="112.44"/><rect class="cls-3" x="2698.68" y="674.67" width="112.45" height="112.44"/><rect class="cls-1" x="562.23" y="787.12" width="112.44" height="112.45"/><rect class="cls-4" x="674.67" y="787.12" width="112.45" height="112.45"/><rect class="cls-4" x="787.12" y="787.12" width="112.44" height="112.45"/><rect class="cls-4" x="899.56" y="787.12" width="112.45" height="112.45"/><rect class="cls-4" x="1012.01" y="787.12" width="112.44" height="112.45"/><rect class="cls-4" x="1124.45" y="787.12" width="112.45" height="112.45"/><rect class="cls-5" x="1236.9" y="787.12" width="112.45" height="112.45"/><rect class="cls-5" x="1349.34" y="787.12" width="112.45" height="112.45"/><rect class="cls-4" x="1461.79" y="787.12" width="112.44" height="112.45"/><rect class="cls-4" x="1574.23" y="787.12" width="112.45" height="112.45"/><rect class="cls-4" x="1686.68" y="787.12" width="112.45" height="112.45"/><rect class="cls-7" x="1799.12" y="787.12" width="112.45" height="112.45"/><rect class="cls-8" x="1911.57" y="787.12" width="112.44" height="112.45"/><rect class="cls-8" x="2024.01" y="787.12" width="112.44" height="112.45"/><rect class="cls-8" x="2136.46" y="787.12" width="112.45" height="112.45"/><rect class="cls-8" x="2248.9" y="787.12" width="112.44" height="112.45"/><rect class="cls-8" x="2361.35" y="787.12" width="112.44" height="112.45"/><rect class="cls-7" x="2473.79" y="787.12" width="112.45" height="112.45"/><rect class="cls-2" x="2586.24" y="787.12" width="112.45" height="112.45"/><rect class="cls-3" x="2698.68" y="787.12" width="112.45" height="112.45"/><rect class="cls-1" x="449.78" y="899.56" width="112.45" height="112.45"/><rect class="cls-4" x="562.23" y="899.56" width="112.44" height="112.45"/><rect class="cls-4" x="674.67" y="899.56" width="112.45" height="112.45"/><rect class="cls-4" x="787.12" y="899.56" width="112.44" height="112.45"/><rect class="cls-4" x="899.56" y="899.56" width="112.45" height="112.45"/><rect class="cls-4" x="1012.01" y="899.56" width="112.44" height="112.45"/><rect class="cls-4" x="1124.45" y="899.56" width="112.45" height="112.45"/><rect class="cls-4" x="1236.9" y="899.56" width="112.45" height="112.45"/><rect class="cls-4" x="1349.34" y="899.56" width="112.45" height="112.45"/><rect class="cls-4" x="1461.79" y="899.56" width="112.44" height="112.45"/><rect class="cls-7" x="1574.23" y="899.56" width="112.45" height="112.45"/><rect class="cls-8" x="1686.68" y="899.56" width="112.45" height="112.45"/><rect class="cls-8" x="1799.12" y="899.56" width="112.45" height="112.45"/><rect class="cls-8" x="1911.57" y="899.56" width="112.44" height="112.45"/><rect class="cls-8" x="2024.01" y="899.56" width="112.44" height="112.45"/><rect class="cls-8" x="2136.46" y="899.56" width="112.45" height="112.45"/><rect class="cls-8" x="2248.9" y="899.56" width="112.44" height="112.45"/><rect class="cls-8" x="2361.35" y="899.56" width="112.44" height="112.45"/><rect class="cls-8" x="2473.79" y="899.56" width="112.45" height="112.45"/><rect class="cls-7" x="2586.24" y="899.56" width="112.45" height="112.45"/><rect class="cls-3" x="2698.68" y="899.56" width="112.45" height="112.45"/><rect class="cls-1" x="337.33" y="1012.01" width="112.45" height="112.44"/><rect class="cls-4" x="449.78" y="1012.01" width="112.45" height="112.44"/><rect class="cls-4" x="562.23" y="1012.01" width="112.44" height="112.44"/><rect class="cls-4" x="674.67" y="1012.01" width="112.45" height="112.44"/><rect class="cls-4" x="787.12" y="1012.01" width="112.44" height="112.44"/><rect class="cls-4" x="899.56" y="1012.01" width="112.45" height="112.44"/><rect class="cls-4" x="1012.01" y="1012.01" width="112.44" height="112.44"/><rect class="cls-4" x="1124.45" y="1012.01" width="112.45" height="112.44"/><rect class="cls-4" x="1236.9" y="1012.01" width="112.45" height="112.44"/><rect class="cls-1" x="1349.34" y="1012.01" width="112.45" height="112.44"/><rect class="cls-8" x="1461.79" y="1012.01" width="112.44" height="112.44"/><rect class="cls-8" x="1574.23" y="1012.01" width="112.45" height="112.44"/><rect class="cls-8" x="1686.68" y="1012.01" width="112.45" height="112.44"/><rect class="cls-8" x="1799.12" y="1012.01" width="112.45" height="112.44"/><rect class="cls-8" x="1911.57" y="1012.01" width="112.44" height="112.44"/><rect class="cls-8" x="2024.01" y="1012.01" width="112.44" height="112.44"/><rect class="cls-8" x="2136.46" y="1012.01" width="112.45" height="112.44"/><rect class="cls-8" x="2248.9" y="1012.01" width="112.44" height="112.44"/><rect class="cls-8" x="2361.35" y="1012.01" width="112.44" height="112.44"/><rect class="cls-8" x="2473.79" y="1012.01" width="112.45" height="112.44"/><rect class="cls-3" x="2586.24" y="1012.01" width="112.45" height="112.44"/><rect class="cls-1" x="224.89" y="1124.45" width="112.45" height="112.45"/><rect class="cls-4" x="337.33" y="1124.45" width="112.45" height="112.45"/><rect class="cls-4" x="449.78" y="1124.45" width="112.45" height="112.45"/><rect class="cls-4" x="562.23" y="1124.45" width="112.44" height="112.45"/><rect class="cls-4" x="674.67" y="1124.45" width="112.45" height="112.45"/><rect class="cls-4" x="787.12" y="1124.45" width="112.44" height="112.45"/><rect class="cls-4" x="899.56" y="1124.45" width="112.45" height="112.45"/><rect class="cls-5" x="1012.01" y="1124.45" width="112.44" height="112.45"/><rect class="cls-5" x="1124.45" y="1124.45" width="112.45" height="112.45"/><rect class="cls-1" x="1236.9" y="1124.45" width="112.45" height="112.45"/><rect class="cls-7" x="1349.34" y="1124.45" width="112.45" height="112.45"/><rect class="cls-8" x="1461.79" y="1124.45" width="112.44" height="112.45"/><rect class="cls-8" x="1574.23" y="1124.45" width="112.45" height="112.45"/><rect class="cls-8" x="1686.68" y="1124.45" width="112.45" height="112.45"/><rect class="cls-8" x="1799.12" y="1124.45" width="112.45" height="112.45"/><rect class="cls-8" x="1911.57" y="1124.45" width="112.44" height="112.45"/><rect class="cls-8" x="2024.01" y="1124.45" width="112.44" height="112.45"/><rect class="cls-8" x="2136.46" y="1124.45" width="112.45" height="112.45"/><rect class="cls-8" x="2248.9" y="1124.45" width="112.44" height="112.45"/><rect class="cls-8" x="2361.35" y="1124.45" width="112.44" height="112.45"/><rect class="cls-3" x="2473.79" y="1124.45" width="112.45" height="112.45"/><rect class="cls-1" x="112.44" y="1236.9" width="112.44" height="112.45"/><rect class="cls-2" x="224.89" y="1236.9" width="112.45" height="112.45"/><rect class="cls-4" x="337.33" y="1236.9" width="112.45" height="112.45"/><rect class="cls-4" x="449.78" y="1236.9" width="112.45" height="112.45"/><rect class="cls-4" x="562.23" y="1236.9" width="112.44" height="112.45"/><rect class="cls-4" x="674.67" y="1236.9" width="112.45" height="112.45"/><rect class="cls-2" x="787.12" y="1236.9" width="112.44" height="112.45"/><rect class="cls-5" x="899.56" y="1236.9" width="112.45" height="112.45"/><rect class="cls-5" x="1012.01" y="1236.9" width="112.44" height="112.45"/><rect class="cls-5" x="1124.45" y="1236.9" width="112.45" height="112.45"/><rect class="cls-1" x="1236.9" y="1236.9" width="112.45" height="112.45"/><rect class="cls-7" x="1349.34" y="1236.9" width="112.45" height="112.45"/><rect class="cls-8" x="1461.79" y="1236.9" width="112.44" height="112.45"/><rect class="cls-8" x="1574.23" y="1236.9" width="112.45" height="112.45"/><rect class="cls-8" x="1686.68" y="1236.9" width="112.45" height="112.45"/><rect class="cls-8" x="1799.12" y="1236.9" width="112.45" height="112.45"/><rect class="cls-8" x="1911.57" y="1236.9" width="112.44" height="112.45"/><rect class="cls-8" x="2024.01" y="1236.9" width="112.44" height="112.45"/><rect class="cls-8" x="2136.46" y="1236.9" width="112.45" height="112.45"/><rect class="cls-8" x="2248.9" y="1236.9" width="112.44" height="112.45"/><rect class="cls-3" x="2361.35" y="1236.9" width="112.44" height="112.45"/><rect class="cls-1" x="112.44" y="1349.34" width="112.44" height="112.45"/><rect class="cls-4" x="224.89" y="1349.34" width="112.45" height="112.45"/><rect class="cls-5" x="337.33" y="1349.34" width="112.45" height="112.45"/><rect class="cls-5" x="449.78" y="1349.34" width="112.45" height="112.45"/><rect class="cls-5" x="562.23" y="1349.34" width="112.44" height="112.45"/><rect class="cls-4" x="674.67" y="1349.34" width="112.45" height="112.45"/><rect class="cls-3" x="787.12" y="1349.34" width="112.44" height="112.45"/><rect class="cls-4" x="899.56" y="1349.34" width="112.45" height="112.45"/><rect class="cls-5" x="1012.01" y="1349.34" width="112.44" height="112.45"/><rect class="cls-5" x="1124.45" y="1349.34" width="112.45" height="112.45"/><rect class="cls-1" x="1236.9" y="1349.34" width="112.45" height="112.45"/><rect class="cls-7" x="1349.34" y="1349.34" width="112.45" height="112.45"/><rect class="cls-7" x="1461.79" y="1349.34" width="112.44" height="112.45"/><rect class="cls-8" x="1574.23" y="1349.34" width="112.45" height="112.45"/><rect class="cls-8" x="1686.68" y="1349.34" width="112.45" height="112.45"/><rect class="cls-8" x="1799.12" y="1349.34" width="112.45" height="112.45"/><rect class="cls-8" x="1911.57" y="1349.34" width="112.44" height="112.45"/><rect class="cls-8" x="2024.01" y="1349.34" width="112.44" height="112.45"/><rect class="cls-8" x="2136.46" y="1349.34" width="112.45" height="112.45"/><rect class="cls-3" x="2248.9" y="1349.34" width="112.44" height="112.45"/><rect class="cls-3" x="2361.35" y="1349.34" width="112.44" height="112.45"/><rect class="cls-1" x="112.44" y="1461.79" width="112.44" height="112.44"/><rect class="cls-4" x="224.89" y="1461.79" width="112.45" height="112.44"/><rect class="cls-5" x="337.33" y="1461.79" width="112.45" height="112.44"/><rect class="cls-5" x="449.78" y="1461.79" width="112.45" height="112.44"/><rect class="cls-5" x="562.23" y="1461.79" width="112.44" height="112.44"/><rect class="cls-5" x="674.67" y="1461.79" width="112.45" height="112.44"/><rect class="cls-1" x="787.12" y="1461.79" width="112.44" height="112.44"/><rect class="cls-2" x="899.56" y="1461.79" width="112.45" height="112.44"/><rect class="cls-5" x="1012.01" y="1461.79" width="112.44" height="112.44"/><rect class="cls-5" x="1124.45" y="1461.79" width="112.45" height="112.44"/><rect class="cls-5" x="1236.9" y="1461.79" width="112.45" height="112.44"/><rect class="cls-1" x="1349.34" y="1461.79" width="112.45" height="112.44"/><rect class="cls-7" x="1461.79" y="1461.79" width="112.44" height="112.44"/><rect class="cls-8" x="1574.23" y="1461.79" width="112.45" height="112.44"/><rect class="cls-8" x="1686.68" y="1461.79" width="112.45" height="112.44"/><rect class="cls-8" x="1799.12" y="1461.79" width="112.45" height="112.44"/><rect class="cls-8" x="1911.57" y="1461.79" width="112.44" height="112.44"/><rect class="cls-8" x="2024.01" y="1461.79" width="112.44" height="112.44"/><rect class="cls-3" x="2136.46" y="1461.79" width="112.45" height="112.44"/><rect class="cls-2" x="2248.9" y="1461.79" width="112.44" height="112.44"/><rect class="cls-3" x="2361.35" y="1461.79" width="112.44" height="112.44"/><rect class="cls-3" x="112.44" y="1574.23" width="112.44" height="112.45"/><rect class="cls-3" x="224.89" y="1574.23" width="112.45" height="112.45"/><rect class="cls-5" x="337.33" y="1574.23" width="112.45" height="112.45"/><rect class="cls-5" x="449.78" y="1574.23" width="112.45" height="112.45"/><rect class="cls-5" x="562.23" y="1574.23" width="112.44" height="112.45"/><rect class="cls-5" x="674.67" y="1574.23" width="112.45" height="112.45"/><rect class="cls-1" x="787.12" y="1574.23" width="112.44" height="112.45"/><rect class="cls-2" x="899.56" y="1574.23" width="112.45" height="112.45"/><rect class="cls-1" x="1012.01" y="1574.23" width="112.44" height="112.45"/><rect class="cls-5" x="1124.45" y="1574.23" width="112.45" height="112.45"/><rect class="cls-5" x="1236.9" y="1574.23" width="112.45" height="112.45"/><rect class="cls-1" x="1349.34" y="1574.23" width="112.45" height="112.45"/><rect class="cls-7" x="1461.79" y="1574.23" width="112.44" height="112.45"/><rect class="cls-7" x="1574.23" y="1574.23" width="112.45" height="112.45"/><rect class="cls-8" x="1686.68" y="1574.23" width="112.45" height="112.45"/><rect class="cls-8" x="1799.12" y="1574.23" width="112.45" height="112.45"/><rect class="cls-8" x="1911.57" y="1574.23" width="112.44" height="112.45"/><rect class="cls-7" x="2024.01" y="1574.23" width="112.44" height="112.45"/><rect class="cls-3" x="2136.46" y="1574.23" width="112.45" height="112.45"/><rect class="cls-2" x="2248.9" y="1574.23" width="112.44" height="112.45"/><rect class="cls-2" x="2361.35" y="1574.23" width="112.44" height="112.45"/><rect class="cls-3" x="2473.79" y="1574.23" width="112.45" height="112.45"/><rect class="cls-3" y="1686.68" width="112.44" height="112.44"/><rect class="cls-2" x="112.44" y="1686.68" width="112.44" height="112.44"/><rect class="cls-4" x="224.89" y="1686.68" width="112.45" height="112.44"/><rect class="cls-4" x="337.33" y="1686.68" width="112.45" height="112.44"/><rect class="cls-5" x="449.78" y="1686.68" width="112.45" height="112.44"/><rect class="cls-5" x="562.23" y="1686.68" width="112.44" height="112.44"/><rect class="cls-4" x="674.67" y="1686.68" width="112.45" height="112.44"/><rect class="cls-1" x="787.12" y="1686.68" width="112.44" height="112.44"/><rect class="cls-2" x="899.56" y="1686.68" width="112.45" height="112.44"/><rect class="cls-1" x="1012.01" y="1686.68" width="112.44" height="112.44"/><rect class="cls-5" x="1124.45" y="1686.68" width="112.45" height="112.44"/><rect class="cls-5" x="1236.9" y="1686.68" width="112.45" height="112.44"/><rect class="cls-1" x="1349.34" y="1686.68" width="112.45" height="112.44"/><rect class="cls-7" x="1461.79" y="1686.68" width="112.44" height="112.44"/><rect class="cls-7" x="1574.23" y="1686.68" width="112.45" height="112.44"/><rect class="cls-7" x="1686.68" y="1686.68" width="112.45" height="112.44"/><rect class="cls-7" x="1799.12" y="1686.68" width="112.45" height="112.44"/><rect class="cls-7" x="1911.57" y="1686.68" width="112.44" height="112.44"/><rect class="cls-3" x="2024.01" y="1686.68" width="112.44" height="112.44"/><rect class="cls-3" x="2136.46" y="1686.68" width="112.45" height="112.44"/><rect class="cls-2" x="2248.9" y="1686.68" width="112.44" height="112.44"/><rect class="cls-2" x="2361.35" y="1686.68" width="112.44" height="112.44"/><rect class="cls-3" x="2473.79" y="1686.68" width="112.45" height="112.44"/><rect class="cls-3" y="1799.12" width="112.44" height="112.45"/><rect class="cls-4" x="112.44" y="1799.12" width="112.44" height="112.45"/><rect class="cls-4" x="224.89" y="1799.12" width="112.45" height="112.45"/><rect class="cls-2" x="337.33" y="1799.12" width="112.45" height="112.45"/><rect class="cls-3" x="449.78" y="1799.12" width="112.45" height="112.45"/><rect class="cls-1" x="562.23" y="1799.12" width="112.44" height="112.45"/><rect class="cls-1" x="674.67" y="1799.12" width="112.45" height="112.45"/><rect class="cls-2" x="787.12" y="1799.12" width="112.44" height="112.45"/><rect class="cls-2" x="899.56" y="1799.12" width="112.45" height="112.45"/><rect class="cls-1" x="1012.01" y="1799.12" width="112.44" height="112.45"/><rect class="cls-5" x="1124.45" y="1799.12" width="112.45" height="112.45"/><rect class="cls-5" x="1236.9" y="1799.12" width="112.45" height="112.45"/><rect class="cls-1" x="1349.34" y="1799.12" width="112.45" height="112.45"/><rect class="cls-7" x="1461.79" y="1799.12" width="112.44" height="112.45"/><rect class="cls-7" x="1574.23" y="1799.12" width="112.45" height="112.45"/><rect class="cls-7" x="1686.68" y="1799.12" width="112.45" height="112.45"/><rect class="cls-7" x="1799.12" y="1799.12" width="112.45" height="112.45"/><rect class="cls-3" x="1911.57" y="1799.12" width="112.44" height="112.45"/><rect class="cls-3" x="2024.01" y="1799.12" width="112.44" height="112.45"/><rect class="cls-3" x="2136.46" y="1799.12" width="112.45" height="112.45"/><rect class="cls-2" x="2248.9" y="1799.12" width="112.44" height="112.45"/><rect class="cls-2" x="2361.35" y="1799.12" width="112.44" height="112.45"/><rect class="cls-3" x="2473.79" y="1799.12" width="112.45" height="112.45"/><rect class="cls-3" y="1911.57" width="112.44" height="112.45"/><rect class="cls-4" x="112.44" y="1911.57" width="112.44" height="112.45"/><rect class="cls-5" x="224.89" y="1911.57" width="112.45" height="112.45"/><rect class="cls-5" x="337.33" y="1911.57" width="112.45" height="112.45"/><rect class="cls-3" x="449.78" y="1911.57" width="112.45" height="112.45"/><rect class="cls-2" x="562.23" y="1911.57" width="112.44" height="112.45"/><rect class="cls-2" x="674.67" y="1911.57" width="112.45" height="112.45"/><rect class="cls-2" x="787.12" y="1911.57" width="112.44" height="112.45"/><rect class="cls-2" x="899.56" y="1911.57" width="112.45" height="112.45"/><rect class="cls-1" x="1012.01" y="1911.57" width="112.44" height="112.45"/><rect class="cls-5" x="1124.45" y="1911.57" width="112.45" height="112.45"/><rect class="cls-4" x="1236.9" y="1911.57" width="112.45" height="112.45"/><rect class="cls-5" x="1349.34" y="1911.57" width="112.45" height="112.45"/><rect class="cls-1" x="1461.79" y="1911.57" width="112.44" height="112.45"/><rect class="cls-7" x="1574.23" y="1911.57" width="112.45" height="112.45"/><rect class="cls-7" x="1686.68" y="1911.57" width="112.45" height="112.45"/><rect class="cls-3" x="1799.12" y="1911.57" width="112.45" height="112.45"/><rect class="cls-2" x="1911.57" y="1911.57" width="112.44" height="112.45"/><rect class="cls-2" x="2024.01" y="1911.57" width="112.44" height="112.45"/><rect class="cls-3" x="2136.46" y="1911.57" width="112.45" height="112.45"/><rect class="cls-4" x="2248.9" y="1911.57" width="112.44" height="112.45"/><rect class="cls-2" x="2361.35" y="1911.57" width="112.44" height="112.45"/><rect class="cls-4" x="2473.79" y="1911.57" width="112.45" height="112.45"/><rect class="cls-3" x="2586.24" y="1911.57" width="112.45" height="112.45"/><rect class="cls-3" x="112.44" y="2024.01" width="112.44" height="112.45"/><rect class="cls-4" x="224.89" y="2024.01" width="112.45" height="112.45"/><rect class="cls-5" x="337.33" y="2024.01" width="112.45" height="112.45"/><rect class="cls-5" x="449.78" y="2024.01" width="112.45" height="112.45"/><rect class="cls-3" x="562.23" y="2024.01" width="112.44" height="112.45"/><rect class="cls-3" x="674.67" y="2024.01" width="112.45" height="112.45"/><rect class="cls-3" x="787.12" y="2024.01" width="112.44" height="112.45"/><rect class="cls-3" x="899.56" y="2024.01" width="112.45" height="112.45"/><rect class="cls-3" x="1012.01" y="2024.01" width="112.44" height="112.45"/><rect class="cls-3" x="1124.45" y="2024.01" width="112.45" height="112.45"/><rect class="cls-3" x="1236.9" y="2024.01" width="112.45" height="112.45"/><rect class="cls-3" x="1349.34" y="2024.01" width="112.45" height="112.45"/><rect class="cls-3" x="1461.79" y="2024.01" width="112.44" height="112.45"/><rect class="cls-3" x="1574.23" y="2024.01" width="112.45" height="112.45"/><rect class="cls-3" x="1686.68" y="2024.01" width="112.45" height="112.45"/><rect class="cls-2" x="1799.12" y="2024.01" width="112.45" height="112.45"/><rect class="cls-2" x="1911.57" y="2024.01" width="112.44" height="112.45"/><rect class="cls-2" x="2024.01" y="2024.01" width="112.44" height="112.45"/><rect class="cls-2" x="2136.46" y="2024.01" width="112.45" height="112.45"/><rect class="cls-3" x="2248.9" y="2024.01" width="112.44" height="112.45"/><rect class="cls-3" x="2361.35" y="2024.01" width="112.44" height="112.45"/><rect class="cls-3" x="2473.79" y="2024.01" width="112.45" height="112.45"/><rect class="cls-3" x="2586.24" y="2024.01" width="112.45" height="112.45"/></g></g></svg>