<svg xmlns="http://www.w3.org/2000/svg" viewBox="0 0 2281 1710.75"><defs><style>.cls-1{fill:#390505;}.cls-2{fill:#eaf9fb;}.cls-3{fill:#edb168;}.cls-4{fill:#c0edf2;}.cls-5{fill:#943634;}.cls-6{fill:#300904;}.cls-7{fill:#4e4e4e;opacity:0.3;}</style></defs><g id="Layer_2" data-name="Layer 2"><g id="Design"><rect class="cls-1" x="488.79" width="81.46" height="81.46"/><rect class="cls-1" x="570.25" width="81.46" height="81.46"/><rect class="cls-1" x="651.71" width="81.46" height="81.46"/><rect class="cls-1" x="733.18" width="81.46" height="81.46"/><rect class="cls-1" x="814.64" width="81.46" height="81.46"/><rect class="cls-1" x="896.11" width="81.46" height="81.46"/><rect class="cls-1" x="977.57" width="81.46" height="81.46"/><rect class="cls-1" x="1059.04" width="81.46" height="81.46"/><rect class="cls-1" x="1140.5" width="81.46" height="81.46"/><rect class="cls-1" x="1221.96" width="81.46" height="81.46"/><rect class="cls-1" x="244.39" y="81.46" width="81.46" height="81.46"/><rect class="cls-1" x="325.86" y="81.46" width="81.46" height="81.46"/><rect class="cls-1" x="407.32" y="81.46" width="81.46" height="81.46"/><rect class="cls-2" x="488.79" y="81.46" width="81.46" height="81.46"/><rect class="cls-2" x="570.25" y="81.46" width="81.46" height="81.46"/><rect class="cls-2" x="651.71" y="81.46" width="81.46" height="81.46"/><rect class="cls-2" x="733.18" y="81.46" width="81.46" height="81.46"/><rect class="cls-2" x="814.64" y="81.46" width="81.46" height="81.46"/><rect class="cls-2" x="896.11" y="81.46" width="81.46" height="81.46"/><rect class="cls-2" x="977.57" y="81.46" width="81.46" height="81.46"/><rect class="cls-2" x="1059.04" y="81.46" width="81.46" height="81.46"/><rect class="cls-2" x="1140.5" y="81.46" width="81.46" height="81.46"/><rect class="cls-2" x="1221.96" y="81.46" width="81.46" height="81.46"/><rect class="cls-1" x="1303.43" y="81.46" width="81.46" height="81.46"/><rect class="cls-1" x="1384.89" y="81.46" width="81.46" height="81.46"/><rect class="cls-1" x="1466.36" y="81.46" width="81.46" height="81.46"/><rect class="cls-1" x="162.93" y="162.93" width="81.46" height="81.46"/><rect class="cls-2" x="244.39" y="162.93" width="81.46" height="81.46"/><rect class="cls-2" x="325.86" y="162.93" width="81.46" height="81.46"/><rect class="cls-2" x="407.32" y="162.93" width="81.46" height="81.46"/><rect class="cls-2" x="488.79" y="162.93" width="81.46" height="81.46"/><rect class="cls-3" x="570.25" y="162.93" width="81.46" height="81.46"/><rect class="cls-3" x="651.71" y="162.93" width="81.46" height="81.46"/><rect class="cls-3" x="733.18" y="162.93" width="81.46" height="81.46"/><rect class="cls-3" x="814.64" y="162.93" width="81.46" height="81.46"/><rect class="cls-3" x="896.11" y="162.93" width="81.46" height="81.46"/><rect class="cls-3" x="977.57" y="162.93" width="81.46" height="81.46"/><rect class="cls-3" x="1059.04" y="162.93" width="81.46" height="81.46"/><rect class="cls-3" x="1140.5" y="162.93" width="81.46" height="81.46"/><rect class="cls-4" x="1221.96" y="162.93" width="81.46" height="81.46"/><rect class="cls-4" x="1303.43" y="162.93" width="81.46" height="81.46"/><rect class="cls-4" x="1384.89" y="162.93" width="81.46" height="81.46"/><rect class="cls-4" x="1466.36" y="162.93" width="81.46" height="81.46"/><rect class="cls-1" x="1547.82" y="162.93" width="81.46" height="81.46"/><rect class="cls-1" x="81.46" y="244.39" width="81.46" height="81.46"/><rect class="cls-2" x="162.93" y="244.39" width="81.46" height="81.46"/><rect class="cls-2" x="244.39" y="244.39" width="81.46" height="81.46"/><rect class="cls-3" x="325.86" y="244.39" width="81.46" height="81.46"/><rect class="cls-3" x="407.32" y="244.39" width="81.46" height="81.46"/><rect class="cls-3" x="488.79" y="244.39" width="81.46" height="81.46"/><rect class="cls-5" x="570.25" y="244.39" width="81.46" height="81.46"/><rect class="cls-5" x="651.71" y="244.39" width="81.46" height="81.46"/><rect class="cls-5" x="733.18" y="244.39" width="81.46" height="81.46"/><rect class="cls-5" x="814.64" y="244.39" width="81.46" height="81.46"/><rect class="cls-5" x="896.11" y="244.39" width="81.46" height="81.46"/><rect class="cls-5" x="977.57" y="244.39" width="81.46" height="81.46"/><rect class="cls-5" x="1059.04" y="244.39" width="81.46" height="81.46"/><rect class="cls-5" x="1140.5" y="244.39" width="81.46" height="81.46"/><rect class="cls-3" x="1221.96" y="244.39" width="81.46" height="81.46"/><rect class="cls-3" x="1303.43" y="244.39" width="81.46" height="81.46"/><rect class="cls-3" x="1384.89" y="244.39" width="81.46" height="81.46"/><rect class="cls-4" x="1466.36" y="244.39" width="81.46" height="81.46"/><rect class="cls-4" x="1547.82" y="244.39" width="81.46" height="81.46"/><rect class="cls-1" x="1629.29" y="244.39" width="81.46" height="81.46"/><rect class="cls-1" y="325.86" width="81.46" height="81.46"/><rect class="cls-2" x="81.46" y="325.86" width="81.46" height="81.46"/><rect class="cls-1" x="162.93" y="325.86" width="81.46" height="81.46"/><rect class="cls-2" x="244.39" y="325.86" width="81.46" height="81.46"/><rect class="cls-5" x="325.86" y="325.86" width="81.46" height="81.46"/><rect class="cls-5" x="407.32" y="325.86" width="81.46" height="81.46"/><rect class="cls-6" x="488.79" y="325.86" width="81.46" height="81.46"/><rect class="cls-6" x="570.25" y="325.86" width="81.46" height="81.46"/><rect class="cls-6" x="651.71" y="325.86" width="81.46" height="81.46"/><rect class="cls-6" x="733.18" y="325.86" width="81.46" height="81.46"/><rect class="cls-6" x="814.64" y="325.86" width="81.46" height="81.46"/><rect class="cls-6" x="896.11" y="325.86" width="81.46" height="81.46"/><rect class="cls-6" x="977.57" y="325.86" width="81.46" height="81.46"/><rect class="cls-6" x="1059.04" y="325.86" width="81.46" height="81.46"/><rect class="cls-6" x="1140.5" y="325.86" width="81.46" height="81.46"/><rect class="cls-6" x="1221.96" y="325.86" width="81.46" height="81.46"/><rect class="cls-5" x="1303.43" y="325.86" width="81.46" height="81.46"/><rect class="cls-5" x="1384.89" y="325.86" width="81.46" height="81.46"/><rect class="cls-4" x="1466.36" y="325.86" width="81.46" height="81.46"/><rect class="cls-1" x="1547.82" y="325.86" width="81.46" height="81.46"/><rect class="cls-4" x="1629.29" y="325.86" width="81.46" height="81.46"/><rect class="cls-1" x="1710.75" y="325.86" width="81.46" height="81.46"/><rect class="cls-1" x="1792.21" y="325.86" width="81.46" height="81.46"/><rect class="cls-1" x="1873.68" y="325.86" width="81.46" height="81.46"/><rect class="cls-1" x="1955.14" y="325.86" width="81.46" height="81.46"/><rect class="cls-1" x="2036.61" y="325.86" width="81.46" height="81.46"/><rect class="cls-1" y="407.32" width="81.46" height="81.46"/><rect class="cls-2" x="81.46" y="407.32" width="81.46" height="81.46"/><rect class="cls-2" x="162.93" y="407.32" width="81.46" height="81.46"/><rect class="cls-1" x="244.39" y="407.32" width="81.46" height="81.46"/><rect class="cls-1" x="325.86" y="407.32" width="81.46" height="81.46"/><rect class="cls-1" x="407.32" y="407.32" width="81.46" height="81.46"/><rect class="cls-6" x="488.79" y="407.32" width="81.46" height="81.46"/><rect class="cls-6" x="570.25" y="407.32" width="81.46" height="81.46"/><rect class="cls-6" x="651.71" y="407.32" width="81.46" height="81.46"/><rect class="cls-6" x="733.18" y="407.32" width="81.46" height="81.46"/><rect class="cls-6" x="814.64" y="407.32" width="81.46" height="81.46"/><rect class="cls-6" x="896.11" y="407.32" width="81.46" height="81.46"/><rect class="cls-6" x="977.57" y="407.32" width="81.46" height="81.46"/><rect class="cls-6" x="1059.04" y="407.32" width="81.46" height="81.46"/><rect class="cls-6" x="1140.5" y="407.32" width="81.46" height="81.46"/><rect class="cls-6" x="1221.96" y="407.32" width="81.46" height="81.46"/><rect class="cls-1" x="1303.43" y="407.32" width="81.46" height="81.46"/><rect class="cls-1" x="1384.89" y="407.32" width="81.46" height="81.46"/><rect class="cls-1" x="1466.36" y="407.32" width="81.46" height="81.46"/><rect class="cls-4" x="1547.82" y="407.32" width="81.46" height="81.46"/><rect class="cls-4" x="1629.29" y="407.32" width="81.46" height="81.46"/><rect class="cls-1" x="1710.75" y="407.32" width="81.46" height="81.46"/><rect class="cls-4" x="1792.21" y="407.32" width="81.46" height="81.46"/><rect class="cls-2" x="1873.68" y="407.32" width="81.46" height="81.46"/><rect class="cls-2" x="1955.14" y="407.32" width="81.46" height="81.46"/><rect class="cls-2" x="2036.61" y="407.32" width="81.46" height="81.46"/><rect class="cls-1" x="2118.07" y="407.32" width="81.46" height="81.46"/><rect class="cls-1" y="488.79" width="81.46" height="81.46"/><rect class="cls-2" x="81.46" y="488.79" width="81.46" height="81.46"/><rect class="cls-2" x="162.93" y="488.79" width="81.46" height="81.46"/><rect class="cls-2" x="244.39" y="488.79" width="81.46" height="81.46"/><rect class="cls-2" x="325.86" y="488.79" width="81.46" height="81.46"/><rect class="cls-2" x="407.32" y="488.79" width="81.46" height="81.46"/><rect class="cls-1" x="488.79" y="488.79" width="81.46" height="81.46"/><rect class="cls-1" x="570.25" y="488.79" width="81.46" height="81.46"/><rect class="cls-1" x="651.71" y="488.79" width="81.46" height="81.46"/><rect class="cls-1" x="733.18" y="488.79" width="81.46" height="81.46"/><rect class="cls-1" x="814.64" y="488.79" width="81.46" height="81.46"/><rect class="cls-1" x="896.11" y="488.79" width="81.46" height="81.46"/><rect class="cls-1" x="977.57" y="488.79" width="81.46" height="81.46"/><rect class="cls-1" x="1059.04" y="488.79" width="81.46" height="81.46"/><rect class="cls-1" x="1140.5" y="488.79" width="81.46" height="81.46"/><rect class="cls-1" x="1221.96" y="488.79" width="81.46" height="81.46"/><rect class="cls-4" x="1303.43" y="488.79" width="81.46" height="81.46"/><rect class="cls-4" x="1384.89" y="488.79" width="81.46" height="81.46"/><rect class="cls-4" x="1466.36" y="488.79" width="81.46" height="81.46"/><rect class="cls-4" x="1547.82" y="488.79" width="81.46" height="81.46"/><rect class="cls-4" x="1629.29" y="488.79" width="81.46" height="81.46"/><rect class="cls-1" x="1710.75" y="488.79" width="81.46" height="81.46"/><rect class="cls-1" x="1792.21" y="488.79" width="81.46" height="81.46"/><rect class="cls-1" x="1873.68" y="488.79" width="81.46" height="81.46"/><rect class="cls-1" x="1955.14" y="488.79" width="81.46" height="81.46"/><rect class="cls-2" x="2036.61" y="488.79" width="81.46" height="81.46"/><rect class="cls-2" x="2118.07" y="488.79" width="81.46" height="81.46"/><rect class="cls-1" x="2199.54" y="488.79" width="81.46" height="81.46"/><rect class="cls-1" y="570.25" width="81.46" height="81.46"/><rect class="cls-2" x="81.46" y="570.25" width="81.46" height="81.46"/><rect class="cls-2" x="162.93" y="570.25" width="81.46" height="81.46"/><rect class="cls-2" x="244.39" y="570.25" width="81.46" height="81.46"/><rect class="cls-2" x="325.86" y="570.25" width="81.46" height="81.46"/><rect class="cls-2" x="407.32" y="570.25" width="81.46" height="81.46"/><rect class="cls-2" x="488.79" y="570.25" width="81.46" height="81.46"/><rect class="cls-2" x="570.25" y="570.25" width="81.46" height="81.46"/><rect class="cls-2" x="651.71" y="570.25" width="81.46" height="81.46"/><rect class="cls-2" x="733.18" y="570.25" width="81.46" height="81.46"/><rect class="cls-2" x="814.64" y="570.25" width="81.46" height="81.46"/><rect class="cls-2" x="896.11" y="570.25" width="81.46" height="81.46"/><rect class="cls-2" x="977.57" y="570.25" width="81.46" height="81.46"/><rect class="cls-2" x="1059.04" y="570.25" width="81.46" height="81.46"/><rect class="cls-2" x="1140.5" y="570.25" width="81.46" height="81.46"/><rect class="cls-2" x="1221.96" y="570.25" width="81.46" height="81.46"/><rect class="cls-2" x="1303.43" y="570.25" width="81.46" height="81.46"/><rect class="cls-4" x="1384.89" y="570.25" width="81.46" height="81.46"/><rect class="cls-4" x="1466.36" y="570.25" width="81.46" height="81.46"/><rect class="cls-4" x="1547.82" y="570.25" width="81.46" height="81.46"/><rect class="cls-4" x="1629.29" y="570.25" width="81.46" height="81.46"/><rect class="cls-1" x="1710.75" y="570.25" width="81.46" height="81.46"/><rect class="cls-1" x="2036.61" y="570.25" width="81.46" height="81.46"/><rect class="cls-2" x="2118.07" y="570.25" width="81.46" height="81.46"/><rect class="cls-1" x="2199.54" y="570.25" width="81.46" height="81.46"/><rect class="cls-1" y="651.71" width="81.46" height="81.46"/><rect class="cls-2" x="81.46" y="651.71" width="81.46" height="81.46"/><rect class="cls-2" x="162.93" y="651.71" width="81.46" height="81.46"/><rect class="cls-2" x="244.39" y="651.71" width="81.46" height="81.46"/><rect class="cls-2" x="325.86" y="651.71" width="81.46" height="81.46"/><rect class="cls-2" x="407.32" y="651.71" width="81.46" height="81.46"/><rect class="cls-2" x="488.79" y="651.71" width="81.46" height="81.46"/><rect class="cls-2" x="570.25" y="651.71" width="81.46" height="81.46"/><rect class="cls-2" x="651.71" y="651.71" width="81.46" height="81.46"/><rect class="cls-2" x="733.18" y="651.71" width="81.46" height="81.46"/><rect class="cls-2" x="814.64" y="651.71" width="81.46" height="81.46"/><rect class="cls-2" x="896.11" y="651.71" width="81.46" height="81.46"/><rect class="cls-2" x="977.57" y="651.71" width="81.46" height="81.46"/><rect class="cls-2" x="1059.04" y="651.71" width="81.46" height="81.46"/><rect class="cls-2" x="1140.5" y="651.71" width="81.46" height="81.46"/><rect class="cls-2" x="1221.96" y="651.71" width="81.46" height="81.46"/><rect class="cls-2" x="1303.43" y="651.71" width="81.46" height="81.46"/><rect class="cls-2" x="1384.89" y="651.71" width="81.46" height="81.46"/><rect class="cls-4" x="1466.36" y="651.71" width="81.46" height="81.46"/><rect class="cls-4" x="1547.82" y="651.71" width="81.46" height="81.46"/><rect class="cls-4" x="1629.29" y="651.71" width="81.46" height="81.46"/><rect class="cls-1" x="1710.75" y="651.71" width="81.46" height="81.46"/><rect class="cls-1" x="2036.61" y="651.71" width="81.46" height="81.46"/><rect class="cls-4" x="2118.07" y="651.71" width="81.46" height="81.46"/><rect class="cls-1" x="2199.54" y="651.71" width="81.46" height="81.46"/><rect class="cls-1" y="733.18" width="81.46" height="81.46"/><rect class="cls-2" x="81.46" y="733.18" width="81.46" height="81.46"/><rect class="cls-2" x="162.93" y="733.18" width="81.46" height="81.46"/><rect class="cls-2" x="244.39" y="733.18" width="81.46" height="81.46"/><rect class="cls-2" x="325.86" y="733.18" width="81.46" height="81.46"/><rect class="cls-2" x="407.32" y="733.18" width="81.46" height="81.46"/><rect class="cls-2" x="488.79" y="733.18" width="81.46" height="81.46"/><rect class="cls-2" x="570.25" y="733.18" width="81.46" height="81.46"/><rect class="cls-2" x="651.71" y="733.18" width="81.46" height="81.46"/><rect class="cls-2" x="733.18" y="733.18" width="81.46" height="81.46"/><rect class="cls-2" x="814.64" y="733.18" width="81.46" height="81.46"/><rect class="cls-2" x="896.11" y="733.18" width="81.46" height="81.46"/><rect class="cls-2" x="977.57" y="733.18" width="81.46" height="81.46"/><rect class="cls-2" x="1059.04" y="733.18" width="81.46" height="81.46"/><rect class="cls-2" x="1140.5" y="733.18" width="81.46" height="81.46"/><rect class="cls-2" x="1221.96" y="733.18" width="81.46" height="81.46"/><rect class="cls-2" x="1303.43" y="733.18" width="81.46" height="81.46"/><rect class="cls-2" x="1384.89" y="733.18" width="81.46" height="81.46"/><rect class="cls-4" x="1466.36" y="733.18" width="81.46" height="81.46"/><rect class="cls-4" x="1547.82" y="733.18" width="81.46" height="81.46"/><rect class="cls-4" x="1629.29" y="733.18" width="81.46" height="81.46"/><rect class="cls-1" x="1710.75" y="733.18" width="81.46" height="81.46"/><rect class="cls-1" x="1792.21" y="733.18" width="81.46" height="81.46"/><rect class="cls-1" x="1873.68" y="733.18" width="81.46" height="81.46"/><rect class="cls-1" x="1955.14" y="733.18" width="81.46" height="81.46"/><rect class="cls-4" x="2036.61" y="733.18" width="81.46" height="81.46"/><rect class="cls-4" x="2118.07" y="733.18" width="81.46" height="81.46"/><rect class="cls-1" x="2199.54" y="733.18" width="81.46" height="81.46"/><rect class="cls-1" y="814.64" width="81.46" height="81.46"/><rect class="cls-4" x="81.46" y="814.64" width="81.46" height="81.46"/><rect class="cls-2" x="162.93" y="814.64" width="81.46" height="81.46"/><rect class="cls-2" x="244.39" y="814.64" width="81.46" height="81.46"/><rect class="cls-2" x="325.86" y="814.64" width="81.46" height="81.46"/><rect class="cls-2" x="407.32" y="814.64" width="81.46" height="81.46"/><rect class="cls-2" x="488.79" y="814.64" width="81.46" height="81.46"/><rect class="cls-2" x="570.25" y="814.64" width="81.46" height="81.46"/><rect class="cls-2" x="651.71" y="814.64" width="81.46" height="81.46"/><rect class="cls-2" x="733.18" y="814.64" width="81.46" height="81.46"/><rect class="cls-2" x="814.64" y="814.64" width="81.46" height="81.46"/><rect class="cls-2" x="896.11" y="814.64" width="81.46" height="81.46"/><rect class="cls-2" x="977.57" y="814.64" width="81.46" height="81.46"/><rect class="cls-2" x="1059.04" y="814.64" width="81.46" height="81.46"/><rect class="cls-2" x="1140.5" y="814.64" width="81.46" height="81.46"/><rect class="cls-2" x="1221.96" y="814.64" width="81.46" height="81.46"/><rect class="cls-2" x="1303.43" y="814.64" width="81.46" height="81.46"/><rect class="cls-2" x="1384.89" y="814.64" width="81.46" height="81.46"/><rect class="cls-4" x="1466.36" y="814.64" width="81.46" height="81.46"/><rect class="cls-4" x="1547.82" y="814.64" width="81.46" height="81.46"/><rect class="cls-4" x="1629.29" y="814.64" width="81.46" height="81.46"/><rect class="cls-1" x="1710.75" y="814.64" width="81.46" height="81.46"/><rect class="cls-4" x="1792.21" y="814.64" width="81.46" height="81.46"/><rect class="cls-4" x="1873.68" y="814.64" width="81.46" height="81.46"/><rect class="cls-4" x="1955.14" y="814.64" width="81.46" height="81.46"/><rect class="cls-4" x="2036.61" y="814.64" width="81.46" height="81.46"/><rect class="cls-1" x="2118.07" y="814.64" width="81.46" height="81.46"/><rect class="cls-1" y="896.11" width="81.46" height="81.46"/><rect class="cls-4" x="81.46" y="896.11" width="81.46" height="81.46"/><rect class="cls-4" x="162.93" y="896.11" width="81.46" height="81.46"/><rect class="cls-4" x="244.39" y="896.11" width="81.46" height="81.46"/><rect class="cls-2" x="325.86" y="896.11" width="81.46" height="81.46"/><rect class="cls-2" x="407.32" y="896.11" width="81.46" height="81.46"/><rect class="cls-2" x="488.79" y="896.11" width="81.46" height="81.46"/><rect class="cls-2" x="570.25" y="896.11" width="81.46" height="81.46"/><rect class="cls-2" x="651.71" y="896.11" width="81.46" height="81.46"/><rect class="cls-2" x="733.18" y="896.11" width="81.46" height="81.46"/><rect class="cls-2" x="814.64" y="896.11" width="81.46" height="81.46"/><rect class="cls-2" x="896.11" y="896.11" width="81.46" height="81.46"/><rect class="cls-2" x="977.57" y="896.11" width="81.46" height="81.46"/><rect class="cls-2" x="1059.04" y="896.11" width="81.46" height="81.46"/><rect class="cls-2" x="1140.5" y="896.11" width="81.46" height="81.46"/><rect class="cls-2" x="1221.96" y="896.11" width="81.46" height="81.46"/><rect class="cls-2" x="1303.43" y="896.11" width="81.46" height="81.46"/><rect class="cls-4" x="1384.89" y="896.11" width="81.46" height="81.46"/><rect class="cls-4" x="1466.36" y="896.11" width="81.46" height="81.46"/><rect class="cls-4" x="1547.82" y="896.11" width="81.46" height="81.46"/><rect class="cls-4" x="1629.29" y="896.11" width="81.46" height="81.46"/><rect class="cls-1" x="1710.75" y="896.11" width="81.46" height="81.46"/><rect class="cls-1" x="1792.21" y="896.11" width="81.46" height="81.46"/><rect class="cls-1" x="1873.68" y="896.11" width="81.46" height="81.46"/><rect class="cls-1" x="1955.14" y="896.11" width="81.46" height="81.46"/><rect class="cls-1" x="2036.61" y="896.11" width="81.46" height="81.46"/><rect class="cls-1" x="81.46" y="977.57" width="81.46" height="81.46"/><rect class="cls-4" x="162.93" y="977.57" width="81.46" height="81.46"/><rect class="cls-4" x="244.39" y="977.57" width="81.46" height="81.46"/><rect class="cls-4" x="325.86" y="977.57" width="81.46" height="81.46"/><rect class="cls-2" x="407.32" y="977.57" width="81.46" height="81.46"/><rect class="cls-2" x="488.79" y="977.57" width="81.46" height="81.46"/><rect class="cls-2" x="570.25" y="977.57" width="81.46" height="81.46"/><rect class="cls-2" x="651.71" y="977.57" width="81.46" height="81.46"/><rect class="cls-2" x="733.18" y="977.57" width="81.46" height="81.46"/><rect class="cls-2" x="814.64" y="977.57" width="81.46" height="81.46"/><rect class="cls-2" x="896.11" y="977.57" width="81.46" height="81.46"/><rect class="cls-2" x="977.57" y="977.57" width="81.46" height="81.46"/><rect class="cls-2" x="1059.04" y="977.57" width="81.46" height="81.46"/><rect class="cls-2" x="1140.5" y="977.57" width="81.46" height="81.46"/><rect class="cls-2" x="1221.96" y="977.57" width="81.46" height="81.46"/><rect class="cls-4" x="1303.43" y="977.57" width="81.46" height="81.46"/><rect class="cls-4" x="1384.89" y="977.57" width="81.46" height="81.46"/><rect class="cls-4" x="1466.36" y="977.57" width="81.46" height="81.46"/><rect class="cls-4" x="1547.82" y="977.57" width="81.46" height="81.46"/><rect class="cls-1" x="1629.29" y="977.57" width="81.46" height="81.46"/><rect class="cls-1" x="81.46" y="1059.04" width="81.46" height="81.46"/><rect class="cls-4" x="162.93" y="1059.04" width="81.46" height="81.46"/><rect class="cls-4" x="244.39" y="1059.04" width="81.46" height="81.46"/><rect class="cls-4" x="325.86" y="1059.04" width="81.46" height="81.46"/><rect class="cls-4" x="407.32" y="1059.04" width="81.46" height="81.46"/><rect class="cls-4" x="488.79" y="1059.04" width="81.46" height="81.46"/><rect class="cls-4" x="570.25" y="1059.04" width="81.46" height="81.46"/><rect class="cls-2" x="651.71" y="1059.04" width="81.46" height="81.46"/><rect class="cls-2" x="733.18" y="1059.04" width="81.46" height="81.46"/><rect class="cls-2" x="814.64" y="1059.04" width="81.46" height="81.46"/><rect class="cls-2" x="896.11" y="1059.04" width="81.46" height="81.46"/><rect class="cls-2" x="977.57" y="1059.04" width="81.46" height="81.46"/><rect class="cls-2" x="1059.04" y="1059.04" width="81.46" height="81.46"/><rect class="cls-4" x="1140.5" y="1059.04" width="81.46" height="81.46"/><rect class="cls-4" x="1221.96" y="1059.04" width="81.46" height="81.46"/><rect class="cls-4" x="1303.43" y="1059.04" width="81.46" height="81.46"/><rect class="cls-4" x="1384.89" y="1059.04" width="81.46" height="81.46"/><rect class="cls-4" x="1466.36" y="1059.04" width="81.46" height="81.46"/><rect class="cls-4" x="1547.82" y="1059.04" width="81.46" height="81.46"/><rect class="cls-1" x="1629.29" y="1059.04" width="81.46" height="81.46"/><rect class="cls-1" x="162.93" y="1140.5" width="81.46" height="81.46"/><rect class="cls-4" x="244.39" y="1140.5" width="81.46" height="81.46"/><rect class="cls-4" x="325.86" y="1140.5" width="81.46" height="81.46"/><rect class="cls-4" x="407.32" y="1140.5" width="81.46" height="81.46"/><rect class="cls-4" x="488.79" y="1140.5" width="81.46" height="81.46"/><rect class="cls-4" x="570.25" y="1140.5" width="81.46" height="81.46"/><rect class="cls-4" x="651.71" y="1140.5" width="81.46" height="81.46"/><rect class="cls-4" x="733.18" y="1140.5" width="81.46" height="81.46"/><rect class="cls-4" x="814.64" y="1140.5" width="81.46" height="81.46"/><rect class="cls-4" x="896.11" y="1140.5" width="81.46" height="81.46"/><rect class="cls-4" x="977.57" y="1140.5" width="81.46" height="81.46"/><rect class="cls-4" x="1059.04" y="1140.5" width="81.46" height="81.46"/><rect class="cls-4" x="1140.5" y="1140.5" width="81.46" height="81.46"/><rect class="cls-4" x="1221.96" y="1140.5" width="81.46" height="81.46"/><rect class="cls-4" x="1303.43" y="1140.5" width="81.46" height="81.46"/><rect class="cls-4" x="1384.89" y="1140.5" width="81.46" height="81.46"/><rect class="cls-4" x="1466.36" y="1140.5" width="81.46" height="81.46"/><rect class="cls-1" x="1547.82" y="1140.5" width="81.46" height="81.46"/><rect class="cls-7" x="81.46" y="1221.96" width="81.46" height="81.46"/><rect class="cls-7" x="162.93" y="1221.96" width="81.46" height="81.46"/><rect class="cls-1" x="244.39" y="1221.96" width="81.46" height="81.46"/><rect class="cls-4" x="325.86" y="1221.96" width="81.46" height="81.46"/><rect class="cls-4" x="407.32" y="1221.96" width="81.46" height="81.46"/><rect class="cls-4" x="488.79" y="1221.96" width="81.46" height="81.46"/><rect class="cls-4" x="570.25" y="1221.96" width="81.46" height="81.46"/><rect class="cls-4" x="651.71" y="1221.96" width="81.46" height="81.46"/><rect class="cls-4" x="733.18" y="1221.96" width="81.46" height="81.46"/><rect class="cls-4" x="814.64" y="1221.96" width="81.46" height="81.46"/><rect class="cls-4" x="896.11" y="1221.96" width="81.46" height="81.46"/><rect class="cls-4" x="977.57" y="1221.96" width="81.46" height="81.46"/><rect class="cls-4" x="1059.04" y="1221.96" width="81.46" height="81.46"/><rect class="cls-4" x="1140.5" y="1221.96" width="81.46" height="81.46"/><rect class="cls-4" x="1221.96" y="1221.96" width="81.46" height="81.46"/><rect class="cls-4" x="1303.43" y="1221.96" width="81.46" height="81.46"/><rect class="cls-4" x="1384.89" y="1221.96" width="81.46" height="81.46"/><rect class="cls-1" x="1466.36" y="1221.96" width="81.46" height="81.46"/><rect class="cls-7" x="1547.82" y="1221.96" width="81.46" height="81.46"/><rect class="cls-7" x="1629.29" y="1221.96" width="81.46" height="81.46"/><rect class="cls-7" y="1303.43" width="81.46" height="81.46"/><rect class="cls-7" x="81.46" y="1303.43" width="81.46" height="81.46"/><rect class="cls-7" x="162.93" y="1303.43" width="81.46" height="81.46"/><rect class="cls-7" x="244.39" y="1303.43" width="81.46" height="81.46"/><rect class="cls-1" x="325.86" y="1303.43" width="81.46" height="81.46"/><rect class="cls-4" x="407.32" y="1303.43" width="81.46" height="81.46"/><rect class="cls-4" x="488.79" y="1303.43" width="81.46" height="81.46"/><rect class="cls-4" x="570.25" y="1303.43" width="81.46" height="81.46"/><rect class="cls-4" x="651.71" y="1303.43" width="81.46" height="81.46"/><rect class="cls-4" x="733.18" y="1303.43" width="81.46" height="81.46"/><rect class="cls-4" x="814.64" y="1303.43" width="81.46" height="81.46"/><rect class="cls-4" x="896.11" y="1303.43" width="81.46" height="81.46"/><rect class="cls-4" x="977.57" y="1303.43" width="81.46" height="81.46"/><rect class="cls-4" x="1059.04" y="1303.43" width="81.46" height="81.46"/><rect class="cls-4" x="1140.5" y="1303.43" width="81.46" height="81.46"/><rect class="cls-4" x="1221.96" y="1303.43" width="81.46" height="81.46"/><rect class="cls-4" x="1303.43" y="1303.43" width="81.46" height="81.46"/><rect class="cls-1" x="1384.89" y="1303.43" width="81.46" height="81.46"/><rect class="cls-7" x="1466.36" y="1303.43" width="81.46" height="81.46"/><rect class="cls-7" x="1547.82" y="1303.43" width="81.46" height="81.46"/><rect class="cls-7" x="1629.29" y="1303.43" width="81.46" height="81.46"/><rect class="cls-7" x="1710.75" y="1303.43" width="81.46" height="81.46"/><rect class="cls-7" y="1384.89" width="81.46" height="81.46"/><rect class="cls-7" x="81.46" y="1384.89" width="81.46" height="81.46"/><rect class="cls-7" x="162.93" y="1384.89" width="81.46" height="81.46"/><rect class="cls-7" x="244.39" y="1384.89" width="81.46" height="81.46"/><rect class="cls-7" x="325.86" y="1384.89" width="81.46" height="81.46"/><rect class="cls-1" x="407.32" y="1384.89" width="81.46" height="81.46"/><rect class="cls-1" x="488.79" y="1384.89" width="81.46" height="81.46"/><rect class="cls-4" x="570.25" y="1384.89" width="81.46" height="81.46"/><rect class="cls-4" x="651.71" y="1384.89" width="81.46" height="81.46"/><rect class="cls-4" x="733.18" y="1384.89" width="81.46" height="81.46"/><rect class="cls-4" x="814.64" y="1384.89" width="81.46" height="81.46"/><rect class="cls-4" x="896.11" y="1384.89" width="81.46" height="81.46"/><rect class="cls-4" x="977.57" y="1384.89" width="81.46" height="81.46"/><rect class="cls-4" x="1059.04" y="1384.89" width="81.46" height="81.46"/><rect class="cls-4" x="1140.5" y="1384.89" width="81.46" height="81.46"/><rect class="cls-1" x="1221.96" y="1384.89" width="81.46" height="81.46"/><rect class="cls-1" x="1303.43" y="1384.89" width="81.46" height="81.46"/><rect class="cls-7" x="1384.89" y="1384.89" width="81.46" height="81.46"/><rect class="cls-7" x="1466.36" y="1384.89" width="81.46" height="81.46"/><rect class="cls-7" x="1547.82" y="1384.89" width="81.46" height="81.46"/><rect class="cls-7" x="1629.29" y="1384.89" width="81.46" height="81.46"/><rect class="cls-7" x="1710.75" y="1384.89" width="81.46" height="81.46"/><rect class="cls-7" x="81.46" y="1466.36" width="81.46" height="81.46"/><rect class="cls-7" x="162.93" y="1466.36" width="81.46" height="81.46"/><rect class="cls-7" x="244.39" y="1466.36" width="81.46" height="81.46"/><rect class="cls-7" x="325.86" y="1466.36" width="81.46" height="81.46"/><rect class="cls-7" x="407.32" y="1466.36" width="81.46" height="81.46"/><rect class="cls-7" x="488.79" y="1466.36" width="81.46" height="81.46"/><rect class="cls-1" x="570.25" y="1466.36" width="81.46" height="81.46"/><rect class="cls-1" x="651.71" y="1466.36" width="81.46" height="81.46"/><rect class="cls-1" x="733.18" y="1466.36" width="81.46" height="81.46"/><rect class="cls-1" x="814.64" y="1466.36" width="81.46" height="81.46"/><rect class="cls-1" x="896.11" y="1466.36" width="81.46" height="81.46"/><rect class="cls-1" x="977.57" y="1466.36" width="81.46" height="81.46"/><rect class="cls-1" x="1059.04" y="1466.36" width="81.46" height="81.46"/><rect class="cls-1" x="1140.5" y="1466.36" width="81.46" height="81.46"/><rect class="cls-7" x="1221.96" y="1466.36" width="81.46" height="81.46"/><rect class="cls-7" x="1303.43" y="1466.36" width="81.46" height="81.46"/><rect class="cls-7" x="1384.89" y="1466.36" width="81.46" height="81.46"/><rect class="cls-7" x="1466.36" y="1466.36" width="81.46" height="81.46"/><rect class="cls-7" x="1547.82" y="1466.36" width="81.46" height="81.46"/><rect class="cls-7" x="1629.29" y="1466.36" width="81.46" height="81.46"/><rect class="cls-7" x="244.39" y="1547.82" width="81.46" height="81.46"/><rect class="cls-7" x="325.86" y="1547.82" width="81.46" height="81.46"/><rect class="cls-7" x="407.32" y="1547.82" width="81.46" height="81.46"/><rect class="cls-7" x="488.79" y="1547.82" width="81.46" height="81.46"/><rect class="cls-7" x="570.25" y="1547.82" width="81.46" height="81.46"/><rect class="cls-7" x="651.71" y="1547.82" width="81.46" height="81.46"/><rect class="cls-7" x="733.18" y="1547.82" width="81.46" height="81.46"/><rect class="cls-7" x="814.64" y="1547.82" width="81.46" height="81.46"/><rect class="cls-7" x="896.11" y="1547.82" width="81.46" height="81.46"/><rect class="cls-7" x="977.57" y="1547.82" width="81.46" height="81.46"/><rect class="cls-7" x="1059.04" y="1547.82" width="81.46" height="81.46"/><rect class="cls-7" x="1140.5" y="1547.82" width="81.46" height="81.46"/><rect class="cls-7" x="1221.96" y="1547.82" width="81.46" height="81.46"/><rect class="cls-7" x="1303.43" y="1547.82" width="81.46" height="81.46"/><rect class="cls-7" x="1384.89" y="1547.82" width="81.46" height="81.46"/><rect class="cls-7" x="1466.36" y="1547.82" width="81.46" height="81.46"/><rect class="cls-7" x="488.79" y="1629.29" width="81.46" height="81.46"/><rect class="cls-7" x="570.25" y="1629.29" width="81.46" height="81.46"/><rect class="cls-7" x="651.71" y="1629.29" width="81.46" height="81.46"/><rect class="cls-7" x="733.18" y="1629.29" width="81.46" height="81.46"/><rect class="cls-7" x="814.64" y="1629.29" width="81.46" height="81.46"/><rect class="cls-7" x="896.11" y="1629.29" width="81.46" height="81.46"/><rect class="cls-7" x="977.57" y="1629.29" width="81.46" height="81.46"/><rect class="cls-7" x="1059.04" y="1629.29" width="81.46" height="81.46"/><rect class="cls-7" x="1140.5" y="1629.29" width="81.46" height="81.46"/><rect class="cls-7" x="1221.96" y="1629.29" width="81.46" height="81.46"/></g></g></svg>